<svg xmlns="http://www.w3.org/2000/svg" fill="none" viewBox="0 0 48 48" id="imageuploadcamera">
  <path fill="url(#paint0_linear_2375_4187)" d="M24.0005 45C24.0005 45.55 23.5505 46 23.0005 46H4.98047C3.33047 46 1.98047 44.65 1.98047 43V5C1.98047 3.35 3.33047 2 4.98047 2H30.1505C30.2805 2 30.4105 2.03 30.5305 2.07C31.0405 2.28 31.4805 2.46 31.9705 2.67C32.0905 2.72 32.1905 2.79 32.2805 2.88L38.1005 8.7C38.6705 9.27 38.9805 10.02 38.9805 10.83L39.0005 13.99C39.0005 14.54 38.5605 14.99 38.0105 15C37.4605 15 37.0105 14.56 37.0105 14.01L36.9905 10.84C36.9905 10.57 36.8805 10.31 36.6905 10.12L31.0105 4.44C30.6505 4.29 30.3205 4.15 29.9605 4.01H4.98047C4.43047 4.01 3.98047 4.46 3.98047 5.01V43.01C3.98047 43.56 4.43047 44.01 4.98047 44.01H23.0005C23.5505 44.01 24.0005 44.46 24.0005 45.01V45ZM45.9105 29.4C45.7505 29.76 45.3905 30 45.0005 30H42.0005V45C42.0005 45.55 41.5505 46 41.0005 46H29.0005C28.4505 46 28.0005 45.55 28.0005 45V30H25.0005C24.6005 30 24.2505 29.77 24.0905 29.4C23.9305 29.04 24.0005 28.62 24.2605 28.32L34.2605 17.32C34.6405 16.9 35.3605 16.9 35.7405 17.32L45.7405 28.32C46.0105 28.61 46.0705 29.04 45.9105 29.4ZM42.7405 28L35.0005 19.49L27.2605 28H29.0005C29.5505 28 30.0005 28.45 30.0005 29V44H40.0005V29C40.0005 28.45 40.4505 28 41.0005 28H42.7405ZM20.9805 23C21.8505 23 22.6705 23.38 23.2405 24.03C23.6005 24.45 24.2405 24.49 24.6505 24.13C25.0705 23.77 25.1105 23.14 24.7505 22.72C23.8005 21.63 22.4205 21 20.9805 21C18.2205 21 15.9805 23.24 15.9805 26C15.9805 28.31 17.5505 30.31 19.7905 30.86C19.8705 30.88 19.9505 30.89 20.0305 30.89C20.4805 30.89 20.8905 30.58 21.0005 30.13C21.1305 29.59 20.8005 29.05 20.2705 28.92C18.9305 28.59 17.9905 27.39 17.9905 26.01C17.9905 24.36 19.3405 23.01 20.9905 23.01L20.9805 23ZM23.0005 33H10.9805C10.4305 33 9.98047 32.55 9.98047 32V20C9.98047 19.45 10.4305 19 10.9805 19H13.7405C14.8805 19 15.9105 18.36 16.4205 17.34L17.3205 15.56C17.4905 15.22 17.8305 15 18.2205 15H23.7405C24.1205 15 24.4605 15.21 24.6405 15.56L25.5405 17.34C26.0505 18.37 27.0805 19 28.2205 19C28.7705 19 29.2205 18.55 29.2205 18C29.2205 17.45 28.7705 17 28.2205 17C27.8405 17 27.5005 16.79 27.3205 16.44L26.4205 14.66C25.9105 13.63 24.8805 13 23.7405 13H18.2205C17.0805 13 16.0505 13.64 15.5405 14.66L14.6405 16.44C14.4705 16.78 14.1305 17 13.7405 17H10.9805C9.33047 17 7.98047 18.35 7.98047 20V32C7.98047 33.65 9.33047 35 10.9805 35H23.0005C23.5505 35 24.0005 34.55 24.0005 34C24.0005 33.45 23.5505 33 23.0005 33Z"></path>
  <defs>
    <linearGradient id="paint0_linear_2375_4187" x1="23.989" x2="23.989" y1="2" y2="46" gradientUnits="userSpaceOnUse">
      <stop stop-color="#808080" class="stopColor00c0ff svgShape"></stop>
      <stop offset="1" stop-color="#9f9f9f" class="stopColor4071ff svgShape"></stop>
    </linearGradient>
  </defs>
</svg>
