<svg xmlns="http://www.w3.org/2000/svg" viewBox="0 0 64 64" id="ImageUpload">
  <g fill="#9f9f9f" class="color000000 svgShape">
    <path d="M55 56h-4a1 1 0 0 1-1-1v-4a1 1 0 0 1 2 0v3h2v-6a1 1 0 0 1 .649-.937L53 45.414l-1.649 1.649A1 1 0 0 1 51 49h-2a1 1 0 0 1-.707-1.707l4-4a1 1 0 0 1 1.414 0l4 4A1 1 0 0 1 57 49h-1v6a1 1 0 0 1-1 1Z" fill="#9f9f9f" class="color000000 svgShape"></path>
    <path d="M53 61a11 11 0 1 1 11-11 11.013 11.013 0 0 1-11 11zm0-20a9 9 0 1 0 9 9 9.011 9.011 0 0 0-9-9zM23 19a4 4 0 1 0 4-4 4 4 0 0 0-4 4zm6 0a2 2 0 1 1-2-2 2 2 0 0 1 2 2z" fill="#9f9f9f" class="color000000 svgShape"></path>
    <path d="M50 3H4a4 4 0 0 0-4 4v40a4 4 0 0 0 4 4h36a1 1 0 0 0 0-2H4a2 2 0 0 1-2-2v-6.549l16-14.118L34.338 40.75a1 1 0 0 0 1.324-1.5l-7.15-6.309L36 26.333 49.338 38.1a1 1 0 0 0 1.324-1.5l-14-12.353a1 1 0 0 0-1.324 0L27 31.607l-8.338-7.357a1 1 0 0 0-1.324 0L2 37.784V7a2 2 0 0 1 2-2h46a2 2 0 0 1 2 2v30a1 1 0 0 0 2 0V7a4 4 0 0 0-4-4Z" fill="#9f9f9f" class="color000000 svgShape"></path>
  </g>
</svg>
