<svg xmlns="http://www.w3.org/2000/svg" xml:space="preserve" id="portraitpicture" x="0" y="0" version="1.1" viewBox="0 0 24 24">
  <path fill="#9f9f9f" d="M19 2H7c-1.103 0-2 .897-2 2v18c0 1.103.897 2 2 2h12c1.103 0 2-.897 2-2V4c0-1.103-.897-2-2-2z" class="color2d98d4 svgShape"></path>
  <path fill="#ffffff" d="M19 2H7c-1.103 0-2 .897-2 2v.25c0-1.103.897-2 2-2h12c1.103 0 2 .897 2 2V4c0-1.103-.897-2-2-2z" opacity=".2" class="colorffffff svgShape"></path>
  <path fill="#ffffff" d="M18.781 18.21l-1.122-.375a2.358 2.358 0 0 1-1.215-.928l-.318-.479h-.593l-.197-.788c.536-.628.875-1.428.983-1.961.689-.59.752-2.443.752-2.465 0-.388-.112-.779-.332-1.047.167-.332.295-.76.325-1.239l.365-.364v-.207C17.429 6.743 15.872 5 13.357 5c-1.376 0-2.09.477-2.384.745-.744.178-1.687 1.12-1.687 2.255l-.002.349c-.006.779.001 1.332.069 1.72-.28.264-.424.706-.424 1.145 0 .022.064 1.875.752 2.465.108.533.447 1.333.982 1.961l-.196.788h-.593l-.317.479c-.29.434-.722.763-1.217.928l-1.121.374c-.914.305-1.657 1.295-2.135 2.014L5 20.349V22c0 1.103.897 2 2 2h12c1.103 0 2-.897 2-2v-1.651l-.084-.126c-.76-1.141-1.438-1.781-2.135-2.014z" class="colorffffff svgShape"></path>
  <path fill="#010101" d="M19 23.75H7c-1.103 0-2-.897-2-2V22c0 1.103.897 2 2 2h12c1.103 0 2-.897 2-2v-.25c0 1.103-.897 2-2 2z" opacity=".1" class="color010101 svgShape"></path>
  <path fill="#010101" d="M19 2H7c-1.103 0-2 .897-2 2v18c0 1.103.897 2 2 2h12c1.103 0 2-.897 2-2V4c0-1.103-.897-2-2-2z" opacity=".1" class="color010101 svgShape"></path>
  <path fill="#9f9f9f" d="M17 0H5C3.897 0 3 .897 3 2v18c0 1.103.897 2 2 2h12c1.103 0 2-.897 2-2V2c0-1.103-.897-2-2-2z" class="color2d98d4 svgShape"></path>
  <path fill="#ffffff" d="M17 0H5C3.897 0 3 .897 3 2v.25c0-1.103.897-2 2-2h12c1.103 0 2 .897 2 2V2c0-1.103-.897-2-2-2z" opacity=".2" class="colorffffff svgShape"></path>
  <path fill="#ffffff" d="M16.781 16.21l-1.122-.375a2.358 2.358 0 0 1-1.215-.928l-.318-.479h-.593l-.197-.788c.536-.628.875-1.428.983-1.961.689-.59.752-2.443.752-2.465 0-.388-.112-.779-.332-1.047.167-.332.295-.76.325-1.239l.365-.364v-.207C15.429 4.743 13.872 3 11.357 3c-1.376 0-2.09.477-2.384.745-.744.178-1.687 1.12-1.687 2.255l-.002.349c-.006.779.001 1.332.069 1.72-.28.264-.424.706-.424 1.145 0 .022.064 1.875.752 2.465.108.533.447 1.333.982 1.961l-.196.788h-.593l-.317.479c-.29.434-.722.763-1.217.928l-1.121.374c-.914.305-1.657 1.295-2.135 2.014L3 18.349V20c0 1.103.897 2 2 2h12c1.103 0 2-.897 2-2v-1.651l-.084-.126c-.76-1.141-1.438-1.781-2.135-2.014z" class="colorffffff svgShape"></path>
  <path fill="#010101" d="M17 21.75H5c-1.103 0-2-.897-2-2V20c0 1.103.897 2 2 2h12c1.103 0 2-.897 2-2v-.25c0 1.103-.897 2-2 2z" opacity=".1" class="color010101 svgShape"></path>
  <linearGradient id="SVGID_1_" x1=".607" x2="23.392" y1="6.688" y2="17.312" gradientUnits="userSpaceOnUse">
    <stop offset="0" stop-color="#ffffff" stop-opacity=".2" class="stopColorffffff svgShape"></stop>
    <stop offset="1" stop-color="#ffffff" stop-opacity="0" class="stopColorffffff svgShape"></stop>
  </linearGradient>
  <path fill="url(#SVGID_1_)" d="M19 2c0-1.103-.897-2-2-2H5C3.897 0 3 .897 3 2v18c0 1.103.897 2 2 2 0 1.103.897 2 2 2h12c1.103 0 2-.897 2-2V4c0-1.103-.897-2-2-2z"></path>
</svg>
