<svg width="12" height="6" viewBox="0 0 12 6" fill="none" xmlns="http://www.w3.org/2000/svg">
<path fill-rule="evenodd" clip-rule="evenodd" d="M11.8609 5.79044C11.8112 5.8503 11.7505 5.89946 11.6824 5.93512C11.6143 5.97078 11.54 5.99223 11.4639 5.99825C11.3877 6.00427 11.3111 5.99473 11.2385 5.9702C11.166 5.94566 11.0988 5.9066 11.0408 5.85524L5.99304 1.39009L0.945282 5.85524C0.827594 5.95275 0.677783 5.99919 0.527519 5.98477C0.377255 5.97034 0.238316 5.89617 0.14007 5.77794C0.0418243 5.6597 -0.00802737 5.50667 0.00105476 5.35119C0.0101369 5.19571 0.07744 5.04996 0.188737 4.94477L5.61477 0.144393C5.72013 0.0512148 5.8543 0 5.99304 0C6.13179 0 6.26595 0.0512148 6.37131 0.144393L11.7973 4.94477C11.9142 5.04836 11.9865 5.19562 11.9983 5.35419C12.0101 5.51276 11.9612 5.66966 11.8609 5.79044Z" fill="#6A8AF8"/>
</svg>
