<svg width="12" height="6" viewBox="0 0 12 6" fill="none" xmlns="http://www.w3.org/2000/svg">
<path fill-rule="evenodd" clip-rule="evenodd" d="M0.139094 0.209564C0.188802 0.149701 0.249453 0.100536 0.31758 0.0648784C0.385706 0.0292206 0.459973 0.00776926 0.536136 0.00175085C0.612299 -0.00426755 0.688864 0.00526513 0.761456 0.0298033C0.834047 0.0543414 0.901242 0.0934039 0.9592 0.144759L6.00696 4.60991L11.0547 0.144759C11.1724 0.0472545 11.3222 0.000805642 11.4725 0.0152315C11.6227 0.0296574 11.7617 0.103827 11.8599 0.222062C11.9582 0.340297 12.008 0.493331 11.9989 0.648812C11.9899 0.804292 11.9226 0.950036 11.8113 1.05523L6.38523 5.85561C6.27987 5.94879 6.1457 6 6.00696 6C5.86822 6 5.73405 5.94879 5.62869 5.85561L0.202656 1.05523C0.0857524 0.951635 0.0134738 0.804377 0.00170084 0.645809C-0.0100721 0.487242 0.0396238 0.330336 0.13987 0.209564" fill="#6A8AF8"/>
</svg>
