<svg width="12" height="6" viewBox="0 0 12 6" fill="none" xmlns="http://www.w3.org/2000/svg">
<path fill-rule="evenodd" clip-rule="evenodd" d="M0.139094 0.203038C0.188802 0.145039 0.249453 0.0974053 0.31758 0.0628579C0.385706 0.0283106 0.459973 0.00752731 0.536136 0.00169633C0.612299 -0.00413465 0.688864 0.00510116 0.761456 0.0288752C0.834047 0.0526492 0.901242 0.0904951 0.9592 0.140251L6.00696 4.46635L11.0547 0.140251C11.1724 0.0457829 11.3222 0.000780553 11.4725 0.0147572C11.6227 0.0287338 11.7617 0.100594 11.8599 0.215147C11.9582 0.3297 12.008 0.477968 11.9989 0.628606C11.9899 0.779245 11.9226 0.92045 11.8113 1.02237L6.38523 5.67325C6.27987 5.76353 6.1457 5.81315 6.00696 5.81315C5.86821 5.81315 5.73405 5.76353 5.62869 5.67325L0.202656 1.02237C0.0857524 0.921999 0.0134738 0.779327 0.00170084 0.625698C-0.0100721 0.472068 0.0388483 0.320048 0.139094 0.203038Z" fill="#6A8AF8"/>
</svg>
