<svg width="38" height="32" viewBox="0 0 38 32" fill="none" xmlns="http://www.w3.org/2000/svg">
<path opacity="0.5" d="M28.125 16.875C28.125 20.0625 25.6875 22.5 22.5 22.5C19.3125 22.5 16.875 20.0625 16.875 16.875C16.875 13.6875 19.3125 11.25 22.5 11.25C25.6875 11.25 28.125 13.6875 28.125 16.875ZM37.5 7.5V28.125C37.5 30.1875 35.8125 31.875 33.75 31.875H3.75C1.6875 31.875 0 30.1875 0 28.125V7.5C0 5.4375 1.6875 3.75 3.75 3.75V1.875H11.25V3.75H15L16.875 0H28.125L30 3.75H33.75C35.8125 3.75 37.5 5.4375 37.5 7.5ZM10.3125 11.25C10.3125 9.75 9 8.4375 7.5 8.4375C6 8.4375 4.6875 9.75 4.6875 11.25C4.6875 12.75 6 14.0625 7.5 14.0625C9 14.0625 10.3125 12.75 10.3125 11.25ZM31.875 16.875C31.875 11.625 27.75 7.5 22.5 7.5C17.25 7.5 13.125 11.625 13.125 16.875C13.125 22.125 17.25 26.25 22.5 26.25C27.75 26.25 31.875 22.125 31.875 16.875Z" fill="black"/>
</svg>
