<svg width="32" height="32" viewBox="0 0 32 32" fill="none" xmlns="http://www.w3.org/2000/svg">
<path d="M27.1334 11.8974L26.6454 11.6254L26.4948 11.54C26.1313 11.3219 25.825 11.0202 25.6014 10.66C25.5774 10.624 25.5561 10.5854 25.5134 10.5107C25.226 10.0493 25.0864 9.511 25.1134 8.96802L25.1214 8.40136C25.1374 7.49469 25.1454 7.03869 25.0174 6.63069C24.9042 6.26768 24.7146 5.93309 24.4614 5.64936C24.1761 5.32936 23.7801 5.10003 22.9868 4.64403L22.3281 4.26403C21.5388 3.80936 21.1428 3.58136 20.7228 3.49469C20.3517 3.41791 19.9685 3.42109 19.5988 3.50403C19.1814 3.59736 18.7908 3.83203 18.0108 4.29869L18.0068 4.30136L17.5348 4.58269C17.4601 4.62803 17.4214 4.64936 17.3841 4.67069C17.0134 4.87736 16.6001 4.99069 16.1748 5.00403C16.1321 5.00669 16.0881 5.00669 16.0014 5.00669L15.8281 5.00536C15.4026 4.99181 14.9866 4.8766 14.6148 4.66936C14.5774 4.64936 14.5414 4.62669 14.4668 4.58136L13.9908 4.29602C13.2054 3.82402 12.8121 3.58936 12.3921 3.49469C12.021 3.41162 11.6364 3.40889 11.2641 3.48669C10.8428 3.57469 10.4481 3.80403 9.65744 4.26269L9.65344 4.26403L9.00277 4.64136L8.99611 4.64669C8.21211 5.10003 7.81877 5.32936 7.53611 5.64803C7.28421 5.93122 7.09557 6.26485 6.98277 6.62669C6.85611 7.03602 6.86277 7.49203 6.87877 8.40403L6.88811 8.96936C6.88811 9.05603 6.89211 9.09869 6.89077 9.14002C6.88387 9.62445 6.74512 10.0978 6.48944 10.5094C6.44544 10.584 6.42544 10.6214 6.40277 10.656C6.17796 11.0189 5.86931 11.3225 5.50277 11.5414L5.35344 11.6254L4.87211 11.892C4.06944 12.336 3.66811 12.5587 3.37744 12.876C3.11901 13.1558 2.92352 13.4877 2.80411 13.8494C2.67077 14.2587 2.67077 14.716 2.67211 15.6334L2.67477 16.384C2.67611 17.2947 2.67877 17.7494 2.81344 18.156C2.93235 18.5154 3.12643 18.8454 3.38277 19.124C3.67344 19.4387 4.07077 19.66 4.86677 20.1027L5.34411 20.368C5.42544 20.4134 5.46677 20.4347 5.50544 20.4587C5.92327 20.7092 6.26451 21.0693 6.49211 21.5L6.58144 21.66C6.80666 22.0852 6.91262 22.5635 6.88811 23.044L6.87877 23.5867C6.86277 24.5014 6.85611 24.96 6.98411 25.3694C7.09744 25.732 7.28677 26.0667 7.54011 26.3507C7.82544 26.6707 8.22277 26.8987 9.01477 27.356L9.67344 27.736C10.4641 28.1907 10.8588 28.4187 11.2788 28.5054C11.6498 28.5821 12.033 28.579 12.4028 28.496C12.8214 28.4027 13.2121 28.168 13.9948 27.6987L14.4668 27.416L14.6174 27.328C14.9881 27.1227 15.4014 27.008 15.8268 26.9947L16.0001 26.9934H16.1734C16.5974 27.0067 17.0134 27.1227 17.3868 27.3294L17.5094 27.4027L18.0108 27.704C18.7974 28.176 19.1894 28.4107 19.6094 28.504C19.9804 28.588 20.365 28.5916 20.7374 28.5147C21.1574 28.4267 21.5548 28.196 22.3454 27.7374L23.0054 27.3547C23.7894 26.8987 24.1828 26.6707 24.4654 26.352C24.7188 26.068 24.9054 25.7347 25.0188 25.3734C25.1454 24.9667 25.1388 24.5147 25.1228 23.616L25.1121 23.0294V22.86C25.1184 22.3753 25.2567 21.9014 25.5121 21.4894L25.5988 21.3427C25.8236 20.9798 26.1322 20.6762 26.4988 20.4574L26.6454 20.376L26.6481 20.3747L27.1294 20.108C27.9321 19.6627 28.3334 19.4414 28.6254 19.124C28.8841 18.844 29.0788 18.5107 29.1974 18.1507C29.3308 17.744 29.3308 17.288 29.3281 16.3814L29.3254 15.616C29.3241 14.7054 29.3228 14.2494 29.1881 13.8427C29.0686 13.4836 28.8741 13.1541 28.6174 12.876C28.3281 12.5614 27.9308 12.34 27.1361 11.8987L27.1334 11.8974Z" stroke="#313C5F" stroke-width="2" stroke-linecap="round" stroke-linejoin="round"/>
<path d="M10.667 16.0001C10.667 17.4146 11.2289 18.7711 12.2291 19.7713C13.2293 20.7715 14.5858 21.3334 16.0003 21.3334C17.4148 21.3334 18.7714 20.7715 19.7716 19.7713C20.7718 18.7711 21.3337 17.4146 21.3337 16.0001C21.3337 14.5856 20.7718 13.229 19.7716 12.2288C18.7714 11.2287 17.4148 10.6667 16.0003 10.6667C14.5858 10.6667 13.2293 11.2287 12.2291 12.2288C11.2289 13.229 10.667 14.5856 10.667 16.0001Z" stroke="#313C5F" stroke-width="2" stroke-linecap="round" stroke-linejoin="round"/>
</svg>
