<svg width="8" height="12" viewBox="0 0 8 12" fill="none" xmlns="http://www.w3.org/2000/svg">
<path d="M4.22502 0.0864983L7.90663 3.49712C7.95115 3.53826 7.9815 3.59072 7.99383 3.64785C8.00616 3.70497 7.99992 3.76421 7.9759 3.81805C7.95187 3.87189 7.91115 3.91791 7.85888 3.9503C7.80661 3.98269 7.74514 3.99999 7.68225 4H0.317751C0.254864 3.99999 0.193395 3.98269 0.141123 3.9503C0.0888505 3.91791 0.0481257 3.87189 0.0241028 3.81805C7.98397e-05 3.76421 -0.00616118 3.70497 0.00616923 3.64785C0.0184996 3.59072 0.0488473 3.53826 0.0933714 3.49712L3.77498 0.0864983C3.80451 0.0590795 3.83958 0.0373259 3.87819 0.0224831C3.9168 0.00764025 3.9582 0 4 0C4.0418 0 4.0832 0.00764025 4.12181 0.0224831C4.16042 0.0373259 4.19549 0.0590795 4.22502 0.0864983Z" fill="black"/>
<path d="M3.77498 11.2245L0.0933711 7.54289C0.0488469 7.49848 0.0184995 7.44185 0.00616897 7.38019C-0.00616109 7.31852 7.97534e-05 7.25458 0.0241028 7.19646C0.0481259 7.13835 0.0888497 7.08866 0.141122 7.0537C0.193394 7.01874 0.254864 7.00007 0.317752 7.00005L7.68225 7.00005C7.74514 7.00007 7.8066 7.01873 7.85888 7.0537C7.91115 7.08866 7.95187 7.13835 7.9759 7.19646C7.99992 7.25458 8.00616 7.31852 7.99383 7.38019C7.9815 7.44185 7.95115 7.49847 7.90663 7.54289L4.22502 11.2245C4.19549 11.2541 4.16042 11.2776 4.12181 11.2936C4.0832 11.3096 4.0418 11.3179 4 11.3179C3.9582 11.3179 3.9168 11.3096 3.87819 11.2936C3.83958 11.2776 3.80451 11.2541 3.77498 11.2245Z" fill="black"/>
</svg>
