<svg width="28" height="24" viewBox="0 0 28 24" fill="none" xmlns="http://www.w3.org/2000/svg">
<path d="M15.402 0.00465352C8.61538 -0.182013 3.05538 5.27132 3.05538 12.0047H0.668713C0.0687126 12.0047 -0.224621 12.7247 0.202046 13.138L3.92205 16.8713C4.18871 17.138 4.60205 17.138 4.86871 16.8713L8.58871 13.138C8.68085 13.044 8.7431 12.9248 8.76762 12.7955C8.79215 12.6662 8.77784 12.5325 8.72651 12.4113C8.67518 12.2901 8.58912 12.1868 8.47918 12.1145C8.36924 12.0421 8.24033 12.0039 8.10871 12.0047H5.72205C5.72205 6.80465 9.96205 2.60465 15.1887 2.67132C20.1487 2.73799 24.322 6.91132 24.3887 11.8713C24.4554 17.0847 20.2554 21.338 15.0554 21.338C12.9087 21.338 10.922 20.6047 9.34871 19.3647C9.09333 19.1635 8.77291 19.0632 8.4484 19.0828C8.12389 19.1025 7.81793 19.2408 7.58871 19.4713C7.02871 20.0313 7.06871 20.978 7.69538 21.458C9.79032 23.1144 12.3847 24.0121 15.0554 24.0047C21.7887 24.0047 27.242 18.4447 27.0554 11.658C26.882 5.40465 21.6554 0.177987 15.402 0.00465352ZM14.722 6.67132C14.1754 6.67132 13.722 7.12465 13.722 7.67132V12.578C13.722 13.0447 13.9754 13.4847 14.3754 13.7247L18.5354 16.1913C19.0154 16.4713 19.6287 16.3113 19.9087 15.8447C20.1887 15.3647 20.0287 14.7513 19.562 14.4713L15.722 12.1913V7.65799C15.722 7.12465 15.2687 6.67132 14.722 6.67132Z" fill="#313C5F"/>
</svg>
