<svg width="30" height="30" viewBox="0 0 30 30" fill="none" xmlns="http://www.w3.org/2000/svg">
<path d="M16.5752 3.74997C10.2127 3.57497 5.00016 8.68747 5.00016 15H2.76266C2.20016 15 1.92516 15.675 2.32516 16.0625L5.81266 19.5625C6.06266 19.8125 6.45016 19.8125 6.70016 19.5625L10.1877 16.0625C10.274 15.9743 10.3324 15.8626 10.3554 15.7414C10.3784 15.6202 10.365 15.4948 10.3168 15.3812C10.2687 15.2676 10.188 15.1708 10.085 15.1029C9.9819 15.0351 9.86105 14.9992 9.73766 15H7.50016C7.50016 10.125 11.4752 6.18747 16.3752 6.24997C21.0252 6.31247 24.9377 10.225 25.0002 14.875C25.0627 19.7625 21.1252 23.75 16.2502 23.75C14.2377 23.75 12.3752 23.0625 10.9002 21.9C10.6607 21.7114 10.3603 21.6173 10.0561 21.6358C9.75189 21.6542 9.46505 21.7838 9.25016 22C8.72516 22.525 8.76266 23.4125 9.35016 23.8625C11.3142 25.4154 13.7464 26.257 16.2502 26.25C22.5627 26.25 27.6752 21.0375 27.5002 14.675C27.3377 8.81247 22.4377 3.91247 16.5752 3.74997ZM15.9377 9.99997C15.4252 9.99997 15.0002 10.425 15.0002 10.9375V15.5375C15.0002 15.975 15.2377 16.3875 15.6127 16.6125L19.5127 18.925C19.9627 19.1875 20.5377 19.0375 20.8002 18.6C21.0627 18.15 20.9127 17.575 20.4752 17.3125L16.8752 15.175V10.925C16.8752 10.425 16.4502 9.99997 15.9377 9.99997Z" fill="black"/>
</svg>
