<svg width="32" height="32" viewBox="0 0 32 32" fill="none" xmlns="http://www.w3.org/2000/svg">
<path d="M17.6804 4.00001C10.8937 3.81335 5.3337 9.26668 5.3337 16H2.94703C2.34703 16 2.0537 16.72 2.48037 17.1333L6.20037 20.8667C6.46703 21.1333 6.88037 21.1333 7.14703 20.8667L10.867 17.1333C10.9592 17.0394 11.0214 16.9202 11.0459 16.7909C11.0705 16.6616 11.0562 16.5279 11.0048 16.4067C10.9535 16.2855 10.8674 16.1822 10.7575 16.1098C10.6476 16.0374 10.5187 15.9992 10.387 16H8.00037C8.00037 10.8 12.2404 6.60001 17.467 6.66668C22.427 6.73335 26.6004 10.9067 26.667 15.8667C26.7337 21.08 22.5337 25.3333 17.3337 25.3333C15.187 25.3333 13.2004 24.6 11.627 23.36C11.3717 23.1588 11.0512 23.0585 10.7267 23.0782C10.4022 23.0979 10.0963 23.2361 9.86703 23.4667C9.30703 24.0267 9.34703 24.9733 9.9737 25.4534C12.0686 27.1098 14.663 28.0075 17.3337 28C24.067 28 29.5204 22.44 29.3337 15.6533C29.1604 9.40001 23.9337 4.17335 17.6804 4.00001ZM17.0004 10.6667C16.4537 10.6667 16.0004 11.12 16.0004 11.6667V16.5733C16.0004 17.04 16.2537 17.48 16.6537 17.72L20.8137 20.1867C21.2937 20.4667 21.907 20.3067 22.187 19.84C22.467 19.36 22.307 18.7467 21.8404 18.4667L18.0004 16.1867V11.6533C18.0004 11.12 17.547 10.6667 17.0004 10.6667Z" fill="#313C5F"/>
</svg>
