<svg width="30" height="30" viewBox="0 0 30 30" fill="none" xmlns="http://www.w3.org/2000/svg">
<path d="M25.4376 11.1537L24.9801 10.8987L24.8389 10.8187C24.4981 10.6142 24.211 10.3314 24.0014 9.99369C23.9789 9.95994 23.9589 9.92369 23.9189 9.85369C23.6494 9.4211 23.5185 8.91648 23.5438 8.40744L23.5513 7.87619C23.5663 7.02619 23.5739 6.59869 23.4539 6.21619C23.3477 5.87587 23.17 5.56218 22.9326 5.29619C22.6651 4.99619 22.2938 4.78119 21.5501 4.35369L20.9326 3.99744C20.1926 3.57119 19.8213 3.35744 19.4276 3.27619C19.0797 3.2042 18.7205 3.20719 18.3739 3.28494C17.9826 3.37244 17.6164 3.59244 16.8851 4.02994L16.8814 4.03244L16.4389 4.29619C16.3689 4.33869 16.3326 4.35869 16.2976 4.37869C15.9501 4.57244 15.5626 4.67869 15.1638 4.69119C15.1238 4.69369 15.0826 4.69369 15.0014 4.69369L14.8389 4.69244C14.44 4.67973 14.0499 4.57172 13.7014 4.37744C13.6664 4.35869 13.6326 4.33744 13.5626 4.29494L13.1164 4.02744C12.3801 3.58494 12.0113 3.36494 11.6176 3.27619C11.2697 3.19831 10.9091 3.19575 10.5601 3.26869C10.1651 3.35119 9.7951 3.56619 9.05385 3.99619L9.0501 3.99744L8.4401 4.35119L8.43385 4.35619C7.69885 4.78119 7.3301 4.99619 7.0651 5.29494C6.82895 5.56043 6.6521 5.87322 6.54635 6.21244C6.4276 6.59619 6.43385 7.02369 6.44885 7.87869L6.4576 8.40869C6.4576 8.48994 6.46135 8.52994 6.4601 8.56869C6.45363 9.02284 6.32355 9.46665 6.08385 9.85244C6.0426 9.92244 6.02385 9.95744 6.0026 9.98994C5.79184 10.3302 5.50248 10.6148 5.15885 10.8199L5.01885 10.8987L4.5676 11.1487C3.8151 11.5649 3.43885 11.7737 3.16635 12.0712C2.92407 12.3335 2.7408 12.6446 2.62885 12.9837C2.50385 13.3674 2.50385 13.7962 2.5051 14.6562L2.5076 15.3599C2.50885 16.2137 2.51135 16.6399 2.6376 17.0212C2.74908 17.3581 2.93103 17.6675 3.17135 17.9287C3.44385 18.2237 3.81635 18.4312 4.5626 18.8462L5.0101 19.0949C5.08635 19.1374 5.1251 19.1574 5.16135 19.1799C5.55307 19.4148 5.87298 19.7524 6.08635 20.1562L6.1701 20.3062C6.38124 20.7048 6.48058 21.1532 6.4576 21.6037L6.44885 22.1124C6.43385 22.9699 6.4276 23.3999 6.5476 23.7837C6.65385 24.1237 6.83135 24.4374 7.06885 24.7037C7.33635 25.0037 7.70885 25.2174 8.45135 25.6462L9.06885 26.0024C9.8101 26.4287 10.1801 26.6424 10.5738 26.7237C10.9217 26.7957 11.281 26.7927 11.6276 26.7149C12.0201 26.6274 12.3864 26.4074 13.1201 25.9674L13.5626 25.7024L13.7039 25.6199C14.0514 25.4274 14.4388 25.3199 14.8376 25.3074L15.0001 25.3062H15.1626C15.5601 25.3187 15.9501 25.4274 16.3001 25.6212L16.4151 25.6899L16.8851 25.9724C17.6226 26.4149 17.9901 26.6349 18.3838 26.7224C18.7316 26.8011 19.0922 26.8046 19.4414 26.7324C19.8351 26.6499 20.2076 26.4337 20.9489 26.0037L21.5676 25.6449C22.3026 25.2174 22.6714 25.0037 22.9364 24.7049C23.1739 24.4387 23.3489 24.1262 23.4551 23.7874C23.5739 23.4062 23.5676 22.9824 23.5526 22.1399L23.5426 21.5899V21.4312C23.5485 20.9767 23.6781 20.5325 23.9176 20.1462L23.9988 20.0087C24.2096 19.6685 24.499 19.3838 24.8426 19.1787L24.9801 19.1024L24.9826 19.1012L25.4339 18.8512C26.1864 18.4337 26.5626 18.2262 26.8363 17.9287C27.0788 17.6662 27.2614 17.3537 27.3726 17.0162C27.4976 16.6349 27.4976 16.2074 27.4951 15.3574L27.4926 14.6399C27.4913 13.7862 27.4901 13.3587 27.3639 12.9774C27.2518 12.6408 27.0695 12.3319 26.8288 12.0712C26.5576 11.7762 26.1851 11.5687 25.4401 11.1549L25.4376 11.1537Z" stroke="black" stroke-width="2" stroke-linecap="round" stroke-linejoin="round"/>
<path d="M10 15C10 16.3261 10.5268 17.5979 11.4645 18.5355C12.4021 19.4732 13.6739 20 15 20C16.3261 20 17.5979 19.4732 18.5355 18.5355C19.4732 17.5979 20 16.3261 20 15C20 13.6739 19.4732 12.4021 18.5355 11.4645C17.5979 10.5268 16.3261 10 15 10C13.6739 10 12.4021 10.5268 11.4645 11.4645C10.5268 12.4021 10 13.6739 10 15Z" stroke="black" stroke-width="2" stroke-linecap="round" stroke-linejoin="round"/>
</svg>
