<svg width="32" height="32" viewBox="0 0 32 32" fill="none" xmlns="http://www.w3.org/2000/svg">
<path d="M17.8723 4.00233C11.0856 3.81567 5.52559 9.269 5.52559 16.0023H3.13893C2.53893 16.0023 2.24559 16.7223 2.67226 17.1357L6.39226 20.869C6.65893 21.1357 7.07226 21.1357 7.33893 20.869L11.0589 17.1357C11.1511 17.0417 11.2133 16.9225 11.2378 16.7932C11.2624 16.6639 11.2481 16.5302 11.1967 16.409C11.1454 16.2878 11.0593 16.1845 10.9494 16.1121C10.8394 16.0398 10.7105 16.0016 10.5789 16.0023H8.19226C8.19226 10.8023 12.4323 6.60233 17.6589 6.669C22.6189 6.73567 26.7923 10.909 26.8589 15.869C26.9256 21.0823 22.7256 25.3357 17.5256 25.3357C15.3789 25.3357 13.3923 24.6023 11.8189 23.3623C11.5635 23.1612 11.2431 23.0609 10.9186 23.0805C10.5941 23.1002 10.2881 23.2385 10.0589 23.469C9.49893 24.029 9.53893 24.9757 10.1656 25.4557C12.2605 27.1121 14.8549 28.0098 17.5256 28.0023C24.2589 28.0023 29.7123 22.4423 29.5256 15.6557C29.3523 9.40233 24.1256 4.17567 17.8723 4.00233ZM17.1923 10.669C16.6456 10.669 16.1923 11.1223 16.1923 11.669V16.5757C16.1923 17.0423 16.4456 17.4823 16.8456 17.7223L21.0056 20.189C21.4856 20.469 22.0989 20.309 22.3789 19.8423C22.6589 19.3623 22.4989 18.749 22.0323 18.469L18.1923 16.189V11.6557C18.1923 11.1223 17.7389 10.669 17.1923 10.669Z" fill="#EAEEF6"/>
</svg>
