<svg width="32" height="32" viewBox="0 0 32 32" fill="none" xmlns="http://www.w3.org/2000/svg">
<path d="M27.1333 11.8973L26.6453 11.6253L26.4947 11.54C26.1312 11.3218 25.8249 11.0202 25.6013 10.66C25.5773 10.624 25.556 10.5853 25.5133 10.5107C25.2259 10.0492 25.0863 9.51097 25.1133 8.96799L25.1213 8.40133C25.1373 7.49466 25.1453 7.03866 25.0173 6.63066C24.9041 6.26765 24.7145 5.93305 24.4613 5.64933C24.176 5.32933 23.78 5.09999 22.9867 4.64399L22.328 4.26399C21.5387 3.80933 21.1427 3.58133 20.7227 3.49466C20.3516 3.41788 19.9684 3.42106 19.5987 3.50399C19.1813 3.59733 18.7907 3.83199 18.0107 4.29866L18.0067 4.30133L17.5347 4.58266C17.46 4.62799 17.4213 4.64933 17.384 4.67066C17.0133 4.87733 16.6 4.99066 16.1747 5.00399C16.132 5.00666 16.088 5.00666 16.0013 5.00666L15.828 5.00533C15.4025 4.99178 14.9865 4.87657 14.6147 4.66933C14.5773 4.64933 14.5413 4.62666 14.4667 4.58133L13.9907 4.29599C13.2053 3.82399 12.812 3.58933 12.392 3.49466C12.0209 3.41159 11.6363 3.40886 11.264 3.48666C10.8427 3.57466 10.448 3.80399 9.65732 4.26266L9.65332 4.26399L9.00265 4.64133L8.99598 4.64666C8.21198 5.09999 7.81865 5.32933 7.53598 5.64799C7.28409 5.93119 7.09545 6.26482 6.98265 6.62666C6.85598 7.03599 6.86265 7.49199 6.87865 8.40399L6.88798 8.96933C6.88798 9.05599 6.89198 9.09866 6.89065 9.13999C6.88375 9.62442 6.745 10.0978 6.48932 10.5093C6.44532 10.584 6.42532 10.6213 6.40265 10.656C6.17784 11.0189 5.86919 11.3225 5.50265 11.5413L5.35332 11.6253L4.87198 11.892C4.06932 12.336 3.66798 12.5587 3.37732 12.876C3.11889 13.1558 2.92339 13.4877 2.80398 13.8493C2.67065 14.2587 2.67065 14.716 2.67198 15.6333L2.67465 16.384C2.67598 17.2947 2.67865 17.7493 2.81332 18.156C2.93223 18.5154 3.12631 18.8454 3.38265 19.124C3.67332 19.4387 4.07065 19.66 4.86665 20.1027L5.34398 20.368C5.42532 20.4133 5.46665 20.4347 5.50532 20.4587C5.92315 20.7091 6.26439 21.0693 6.49198 21.5L6.58132 21.66C6.80653 22.0852 6.9125 22.5634 6.88798 23.044L6.87865 23.5867C6.86265 24.5013 6.85598 24.96 6.98398 25.3693C7.09732 25.732 7.28665 26.0667 7.53998 26.3507C7.82532 26.6707 8.22265 26.8987 9.01465 27.356L9.67332 27.736C10.464 28.1907 10.8587 28.4187 11.2787 28.5053C11.6497 28.5821 12.0329 28.5789 12.4027 28.496C12.8213 28.4027 13.212 28.168 13.9947 27.6987L14.4667 27.416L14.6173 27.328C14.988 27.1227 15.4013 27.008 15.8267 26.9947L16 26.9933H16.1733C16.5973 27.0067 17.0133 27.1227 17.3867 27.3293L17.5093 27.4027L18.0107 27.704C18.7973 28.176 19.1893 28.4107 19.6093 28.504C19.9803 28.5879 20.3649 28.5916 20.7373 28.5147C21.1573 28.4267 21.5547 28.196 22.3453 27.7373L23.0053 27.3547C23.7893 26.8987 24.1827 26.6707 24.4653 26.352C24.7187 26.068 24.9053 25.7347 25.0187 25.3733C25.1453 24.9667 25.1387 24.5147 25.1227 23.616L25.112 23.0293V22.86C25.1182 22.3752 25.2565 21.9014 25.512 21.4893L25.5987 21.3427C25.8235 20.9798 26.1321 20.6761 26.4987 20.4573L26.6453 20.376L26.648 20.3747L27.1293 20.108C27.932 19.6627 28.3333 19.4413 28.6253 19.124C28.884 18.844 29.0787 18.5107 29.1973 18.1507C29.3307 17.744 29.3307 17.288 29.328 16.3813L29.3253 15.616C29.324 14.7053 29.3227 14.2493 29.188 13.8427C29.0685 13.4836 28.874 13.1541 28.6173 12.876C28.328 12.5613 27.9307 12.34 27.136 11.8987L27.1333 11.8973Z" stroke="#EAEEF6" stroke-width="2" stroke-linecap="round" stroke-linejoin="round"/>
<path d="M10.6666 16C10.6666 17.4145 11.2285 18.771 12.2287 19.7712C13.2289 20.7714 14.5855 21.3333 16 21.3333C17.4144 21.3333 18.771 20.7714 19.7712 19.7712C20.7714 18.771 21.3333 17.4145 21.3333 16C21.3333 14.5855 20.7714 13.2289 19.7712 12.2288C18.771 11.2286 17.4144 10.6667 16 10.6667C14.5855 10.6667 13.2289 11.2286 12.2287 12.2288C11.2285 13.2289 10.6666 14.5855 10.6666 16Z" stroke="#EAEEF6" stroke-width="2" stroke-linecap="round" stroke-linejoin="round"/>
</svg>
