<svg width="36" height="35" viewBox="0 0 36 35" fill="none" xmlns="http://www.w3.org/2000/svg">
<path d="M24.3564 23.875L21.0649 24.515L25.4981 30.745C26.3415 30.305 27.1232 29.775 27.8638 29.185L24.4592 25.655L28.2135 24.905L17.9072 17.415L24.3564 23.875ZM26.6079 16.227L28.7175 15.266L24.6454 14.965L24.8233 16.767L26.5596 15.74L26.6079 16.227ZM19.3863 11.364L21.3478 13.187L20.7862 11.657L19.3863 11.364Z" fill="#222944"/>
<path d="M18.0001 1.65503C8.90754 1.65503 1.54297 8.82503 1.54297 17.655C1.54297 25.405 7.2104 31.865 14.7293 33.345C14.2973 31.655 13.351 27.505 14.0813 25.425L11.5715 25.235C11.5715 25.235 14.9247 20.465 14.5338 17.905C14.1533 15.355 11.6333 13.765 11.6333 13.765C11.6333 13.765 10.2344 12.695 11.5818 11.105L11.8698 11.345L12.8161 10.825L12.3738 11.765L14.2664 12.685C14.2664 12.685 12.8778 9.60503 12.7235 8.85503C12.7235 8.85503 12.6824 7.74503 13.3921 7.15503L15.079 7.60503L13.8755 6.52503L14.6881 5.77503L18.2573 9.67503C18.2573 9.67503 19.7178 10.795 21.271 10.855L24.6138 14.065L30.4458 14.935C30.4458 14.935 27.8127 17.035 26.4961 17.555L33.0995 24.015C33.9738 22.065 34.4573 19.915 34.4573 17.655C34.4573 8.82503 27.0824 1.65503 18.0001 1.65503Z" fill="#222944"/>
</svg>
