<svg width="76" height="73" viewBox="0 0 76 73" fill="none" xmlns="http://www.w3.org/2000/svg">
<g clip-path="url(#clip0_175_4800)">
<path d="M37.4857 0C16.7749 0 0 16.3886 0 36.5714C0 54.2857 12.9091 69.0514 30.0354 72.4343C29.0514 68.5714 26.896 59.0857 28.5594 54.3314L22.8429 53.8971C22.8429 53.8971 30.4806 42.9943 29.5903 37.1429C28.7234 31.3143 22.9834 27.68 22.9834 27.68C22.9834 27.68 19.7971 25.2343 22.8663 21.6L23.5223 22.1486L25.6777 20.96L24.6703 23.1086L28.9811 25.2114C28.9811 25.2114 25.8183 18.1714 25.4669 16.4571C25.4669 16.4571 25.3731 13.92 26.9897 12.5714L30.832 13.6L28.0909 11.1314L29.9417 9.41714L38.0714 18.3314C38.0714 18.3314 41.3983 20.8914 44.936 21.0286L52.5503 28.3657L65.8343 30.3543C65.8343 30.3543 59.8366 35.1543 56.8377 36.3429L71.8789 51.1086C73.8703 46.6514 74.9714 41.7371 74.9714 36.5714C74.9714 16.3886 58.1731 0 37.4857 0Z" fill="#EAEEF6"/>
<path d="M51.4194 49.4105L44.4709 50.735L53.8297 63.6283C55.6103 62.7177 57.2606 61.6209 58.824 60.3998L51.6366 53.0943L59.5623 51.5422L37.8046 36.0412L51.4194 49.4105ZM56.1727 33.5826L60.6263 31.5938L52.0296 30.9708L52.4053 34.7002L56.0706 32.5747L56.1727 33.5826ZM40.9271 23.5184L45.068 27.2912L43.8824 24.1248L40.9271 23.5184Z" fill="#EAEEF6"/>
</g>
<defs>
<clipPath id="clip0_175_4800">
<rect width="76" height="72.4343" fill="white"/>
</clipPath>
</defs>
</svg>
