<svg width="30" height="30" viewBox="0 0 30 30" fill="none" xmlns="http://www.w3.org/2000/svg">
<path d="M17.5001 12.5L13.7501 16.25M25.3601 3.78878C25.4787 3.74785 25.6064 3.74111 25.7287 3.76934C25.8509 3.79757 25.9628 3.85963 26.0515 3.94842C26.1401 4.03721 26.202 4.14915 26.2301 4.27145C26.2581 4.39375 26.2512 4.52148 26.2101 4.64003L18.8051 25.8025C18.7608 25.929 18.6795 26.0393 18.5717 26.119C18.464 26.1988 18.3347 26.2443 18.2008 26.2497C18.0669 26.2551 17.9344 26.2201 17.8206 26.1493C17.7068 26.0784 17.6169 25.9751 17.5626 25.8525L13.5388 16.8C13.4711 16.6495 13.3506 16.529 13.2001 16.4613L4.14757 12.4363C4.02544 12.3818 3.92247 12.2919 3.85195 12.1782C3.78144 12.0645 3.74662 11.9324 3.75201 11.7987C3.75739 11.6651 3.80272 11.5361 3.88215 11.4285C3.96158 11.3209 4.07145 11.2396 4.19757 11.195L25.3601 3.78878Z" stroke="black" stroke-width="1.5" stroke-linecap="round" stroke-linejoin="round"/>
</svg>
