<svg width="18" height="18" viewBox="0 0 18 18" fill="none" xmlns="http://www.w3.org/2000/svg">
<path d="M10.5001 7.49998L8.25014 9.74998M15.2161 2.27323C15.2873 2.24867 15.3639 2.24463 15.4373 2.26157C15.5107 2.27851 15.5778 2.31574 15.631 2.36901C15.6842 2.42229 15.7213 2.48945 15.7381 2.56283C15.755 2.63621 15.7508 2.71285 15.7261 2.78398L11.2831 15.4815C11.2566 15.5574 11.2078 15.6235 11.1431 15.6714C11.0785 15.7192 11.0009 15.7465 10.9206 15.7498C10.8402 15.753 10.7607 15.732 10.6925 15.6895C10.6242 15.647 10.5702 15.585 10.5376 15.5115L8.12339 10.08C8.08277 9.98966 8.01046 9.91735 7.92014 9.87673L2.48864 7.46173C2.41536 7.42901 2.35358 7.37507 2.31127 7.30688C2.26896 7.23869 2.24807 7.15938 2.2513 7.07919C2.25453 6.99901 2.28173 6.92163 2.32939 6.85706C2.37705 6.79249 2.44297 6.7437 2.51864 6.71698L15.2161 2.27323Z" stroke="#EAEEF6" stroke-width="1.5" stroke-linecap="round" stroke-linejoin="round"/>
</svg>
