<svg width="24" height="24" viewBox="0 0 24 24" fill="none" xmlns="http://www.w3.org/2000/svg">
<path d="M11.6461 15.146L5.85408 9.35395C5.78403 9.28408 5.73629 9.19501 5.71689 9.09799C5.69749 9.00098 5.70731 8.90039 5.7451 8.80895C5.78289 8.71752 5.84696 8.63936 5.9292 8.58435C6.01143 8.52935 6.10814 8.49998 6.20708 8.49995L17.7931 8.49995C17.892 8.49997 17.9887 8.52935 18.071 8.58435C18.1532 8.63936 18.2173 8.71752 18.2551 8.80895C18.2928 8.90038 18.3027 9.00097 18.2833 9.09799C18.2639 9.195 18.2161 9.28408 18.1461 9.35395L12.3541 15.146C12.3076 15.1925 12.2525 15.2295 12.1917 15.2547C12.131 15.2799 12.0658 15.2928 12.0001 15.2928C11.9343 15.2928 11.8692 15.2799 11.8084 15.2547C11.7477 15.2295 11.6925 15.1925 11.6461 15.146Z" fill="black"/>
</svg>
