<svg width="29" height="28" viewBox="0 0 29 28" fill="none" xmlns="http://www.w3.org/2000/svg">
<path d="M25.4616 9.46706L24.9736 9.19506L24.8229 9.10973C24.4594 8.89157 24.1532 8.5899 23.9296 8.22973C23.9056 8.19373 23.8842 8.15506 23.8416 8.08039C23.5541 7.61897 23.4145 7.0807 23.4416 6.53773L23.4496 5.97106C23.4656 5.06439 23.4736 4.60839 23.3456 4.20039C23.2323 3.83738 23.0427 3.50279 22.7896 3.21906C22.5042 2.89906 22.1082 2.66973 21.3149 2.21373L20.6562 1.83373C19.8669 1.37906 19.4709 1.15106 19.0509 1.06439C18.6798 0.987609 18.2966 0.990791 17.9269 1.07373C17.5096 1.16706 17.1189 1.40173 16.3389 1.86839L16.3349 1.87106L15.8629 2.15239C15.7882 2.19773 15.7496 2.21906 15.7122 2.24039C15.3416 2.44706 14.9282 2.56039 14.5029 2.57373C14.4602 2.57639 14.4162 2.57639 14.3296 2.57639L14.1562 2.57506C13.7308 2.56151 13.3147 2.4463 12.9429 2.23906C12.9056 2.21906 12.8696 2.19639 12.7949 2.15106L12.3189 1.86573C11.5336 1.39373 11.1402 1.15906 10.7202 1.06439C10.3491 0.981322 9.9645 0.978594 9.59223 1.05639C9.1709 1.14439 8.77623 1.37373 7.98556 1.83239L7.98156 1.83373L7.3309 2.21106L7.32423 2.21639C6.54023 2.66973 6.1469 2.89906 5.86423 3.21773C5.61233 3.50092 5.4237 3.83456 5.3109 4.19639C5.18423 4.60573 5.1909 5.06173 5.2069 5.97373L5.21623 6.53906C5.21623 6.62573 5.22023 6.66839 5.2189 6.70973C5.21199 7.19415 5.07325 7.66755 4.81757 8.07906C4.77357 8.15373 4.75357 8.19106 4.7309 8.22573C4.50609 8.58862 4.19744 8.89224 3.8309 9.11106L3.68156 9.19506L3.20023 9.46173C2.39756 9.90573 1.99623 10.1284 1.70556 10.4457C1.44714 10.7255 1.25164 11.0574 1.13223 11.4191C0.998898 11.8284 0.998898 12.2857 1.00023 13.2031L1.0029 13.9537C1.00423 14.8644 1.0069 15.3191 1.14156 15.7257C1.26048 16.0851 1.45456 16.4151 1.7109 16.6937C2.00156 17.0084 2.3989 17.2297 3.1949 17.6724L3.67223 17.9377C3.75356 17.9831 3.7949 18.0044 3.83357 18.0284C4.2514 18.2789 4.59263 18.639 4.82023 19.0697L4.90956 19.2297C5.13478 19.6549 5.24075 20.1332 5.21623 20.6137L5.2069 21.1564C5.1909 22.0711 5.18423 22.5297 5.31223 22.9391C5.42556 23.3017 5.6149 23.6364 5.86823 23.9204C6.15357 24.2404 6.5509 24.4684 7.3429 24.9257L8.00156 25.3057C8.79223 25.7604 9.1869 25.9884 9.6069 26.0751C9.97797 26.1518 10.3612 26.1487 10.7309 26.0657C11.1496 25.9724 11.5402 25.7377 12.3229 25.2684L12.7949 24.9857L12.9456 24.8977C13.3162 24.6924 13.7296 24.5777 14.1549 24.5644L14.3282 24.5631H14.5016C14.9256 24.5764 15.3416 24.6924 15.7149 24.8991L15.8376 24.9724L16.3389 25.2737C17.1256 25.7457 17.5176 25.9804 17.9376 26.0737C18.3085 26.1577 18.6931 26.1613 19.0656 26.0844C19.4856 25.9964 19.8829 25.7657 20.6736 25.3071L21.3336 24.9244C22.1176 24.4684 22.5109 24.2404 22.7936 23.9217C23.0469 23.6377 23.2336 23.3044 23.3469 22.9431C23.4736 22.5364 23.4669 22.0844 23.4509 21.1857L23.4402 20.5991V20.4297C23.4465 19.945 23.5848 19.4711 23.8402 19.0591L23.9269 18.9124C24.1517 18.5495 24.4604 18.2459 24.8269 18.0271L24.9736 17.9457L24.9762 17.9444L25.4576 17.6777C26.2602 17.2324 26.6616 17.0111 26.9536 16.6937C27.2122 16.4137 27.4069 16.0804 27.5256 15.7204C27.6589 15.3137 27.6589 14.8577 27.6562 13.9511L27.6536 13.1857C27.6522 12.2751 27.6509 11.8191 27.5162 11.4124C27.3968 11.0533 27.2022 10.7238 26.9456 10.4457C26.6562 10.1311 26.2589 9.90973 25.4642 9.46839L25.4616 9.46706Z" stroke="#313C5F" stroke-width="2" stroke-linecap="round" stroke-linejoin="round"/>
<path d="M8.99512 13.5698C8.99512 14.9843 9.55702 16.3408 10.5572 17.341C11.5574 18.3412 12.914 18.9031 14.3285 18.9031C15.7429 18.9031 17.0995 18.3412 18.0997 17.341C19.0999 16.3408 19.6618 14.9843 19.6618 13.5698C19.6618 12.1553 19.0999 10.7987 18.0997 9.79855C17.0995 8.79835 15.7429 8.23645 14.3285 8.23645C12.914 8.23645 11.5574 8.79835 10.5572 9.79855C9.55702 10.7987 8.99512 12.1553 8.99512 13.5698Z" stroke="#313C5F" stroke-width="2" stroke-linecap="round" stroke-linejoin="round"/>
</svg>
