<svg width="20" height="22" viewBox="0 0 20 22" fill="none" xmlns="http://www.w3.org/2000/svg">
<path fill-rule="evenodd" clip-rule="evenodd" d="M4.13909 8.20304C4.1888 8.14504 4.24945 8.09741 4.31758 8.06286C4.38571 8.02831 4.45997 8.00753 4.53614 8.0017C4.6123 7.99587 4.68886 8.0051 4.76146 8.02888C4.83405 8.05265 4.90124 8.0905 4.9592 8.14025L10.007 12.4663L15.0547 8.14025C15.1724 8.04578 15.3222 8.00078 15.4725 8.01476C15.6227 8.02873 15.7617 8.10059 15.8599 8.21515C15.9582 8.3297 16.008 8.47797 15.9989 8.62861C15.9899 8.77925 15.9226 8.92045 15.8113 9.02237L10.3852 13.6733C10.2799 13.7635 10.1457 13.8131 10.007 13.8131C9.86821 13.8131 9.73405 13.7635 9.62869 13.6733L4.20266 9.02237C4.08575 8.922 4.01347 8.77933 4.0017 8.6257C3.98993 8.47207 4.03885 8.32005 4.13909 8.20304Z" fill="#6A8AF8"/>
</svg>
