<svg width="24" height="20" viewBox="0 0 24 20" fill="none" xmlns="http://www.w3.org/2000/svg">
<path opacity="0.5" d="M18 10.5882C18 12.5882 16.44 14.1176 14.4 14.1176C12.36 14.1176 10.8 12.5882 10.8 10.5882C10.8 8.58824 12.36 7.05882 14.4 7.05882C16.44 7.05882 18 8.58824 18 10.5882ZM24 4.70588V17.6471C24 18.9412 22.92 20 21.6 20H2.4C1.08 20 0 18.9412 0 17.6471V4.70588C0 3.41176 1.08 2.35294 2.4 2.35294V1.17647H7.2V2.35294H9.6L10.8 0H18L19.2 2.35294H21.6C22.92 2.35294 24 3.41176 24 4.70588ZM6.6 7.05882C6.6 6.11765 5.76 5.29412 4.8 5.29412C3.84 5.29412 3 6.11765 3 7.05882C3 8 3.84 8.82353 4.8 8.82353C5.76 8.82353 6.6 8 6.6 7.05882ZM20.4 10.5882C20.4 7.29412 17.76 4.70588 14.4 4.70588C11.04 4.70588 8.4 7.29412 8.4 10.5882C8.4 13.8824 11.04 16.4706 14.4 16.4706C17.76 16.4706 20.4 13.8824 20.4 10.5882Z" fill="black"/>
</svg>
