<svg width="750" height="750" viewBox="0 0 750 750" fill="none" xmlns="http://www.w3.org/2000/svg">
<g clip-path="url(#clip0_332_10257)">
<mask id="mask0_332_10257" style="mask-type:luminance" maskUnits="userSpaceOnUse" x="0" y="0" width="750" height="750">
<path d="M750 0H0V750H750V0Z" fill="white"/>
</mask>
<g mask="url(#mask0_332_10257)">
<path d="M607.689 387.647C607.689 391.643 607.59 395.622 607.375 399.585C606.863 409.921 605.658 420.074 603.825 430.013C602.768 435.759 601.513 441.422 600.044 447.003C598.591 452.485 596.957 457.884 595.124 463.2H154.905C152.164 455.226 149.82 447.069 147.954 438.731C147.525 436.832 147.112 434.917 146.732 432.985C144.668 422.534 143.298 411.835 142.687 400.938C142.439 396.546 142.307 392.105 142.307 387.647C142.307 317.874 173.001 255.3 221.624 212.653C226.082 208.757 230.687 205.008 235.426 201.442C274.308 172.251 322.619 154.948 374.99 154.948C392.376 154.948 409.315 156.847 425.611 160.479C439.117 163.467 452.176 167.645 464.691 172.862C518.433 195.333 561.955 237.402 586.324 290.153C586.951 291.49 587.546 292.844 588.157 294.198C589.445 297.12 590.666 300.076 591.822 303.081C597.98 318.832 602.471 335.425 605.08 352.645C606.781 364.054 607.689 375.76 607.689 387.647Z" fill="url(#paint0_linear_332_10257)"/>
<path d="M167.419 232.295H147.772C145.968 232.295 144.354 230.98 144.177 229.185C143.974 227.122 145.591 225.374 147.62 225.374H153.96C155.804 225.374 157.298 223.88 157.298 222.036V222.03C157.298 220.554 156.335 219.295 155 218.859C154.673 218.75 154.326 218.692 153.96 218.692H107.193C105.349 218.692 103.855 220.186 103.855 222.03V222.036C103.855 223.88 105.349 225.374 107.193 225.374H122.937C123.893 225.374 124.76 225.76 125.383 226.389C126.065 227.071 126.46 228.023 126.389 229.076C126.265 230.916 124.632 232.295 122.788 232.295H91.0317C89.1877 232.295 87.6937 233.789 87.6937 235.633C87.6937 237.477 89.1877 238.971 91.0317 238.971H167.565C168.483 238.971 169.318 238.598 169.928 237.995C170.584 237.339 170.967 236.41 170.895 235.389C170.771 233.618 169.195 232.295 167.419 232.295Z" fill="#E8CA4D"/>
<path d="M314.076 232.295H294.429C292.625 232.295 291.012 230.98 290.835 229.185C290.632 227.122 292.248 225.374 294.277 225.374H300.618C302.462 225.374 303.956 223.88 303.956 222.036V222.03C303.956 220.554 302.993 219.295 301.658 218.859C301.331 218.75 300.984 218.692 300.618 218.692H253.851C252.007 218.692 250.512 220.186 250.512 222.03V222.036C250.512 223.88 252.007 225.374 253.851 225.374H269.595C270.551 225.374 271.417 225.76 272.04 226.389C272.722 227.071 273.118 228.023 273.047 229.076C272.923 230.916 271.289 232.295 269.445 232.295H237.69C235.846 232.295 234.351 233.789 234.351 235.633C234.351 237.477 235.846 238.971 237.69 238.971H314.223C315.141 238.971 315.975 238.598 316.585 237.995C317.241 237.339 317.624 236.41 317.552 235.389C317.428 233.618 315.852 232.295 314.076 232.295Z" fill="#E8CA4D"/>
<path d="M460.734 232.295H441.087C439.283 232.295 437.669 230.98 437.492 229.185C437.289 227.122 438.906 225.374 440.935 225.374H447.275C449.119 225.374 450.613 223.88 450.613 222.036V222.03C450.613 220.554 449.65 219.295 448.315 218.859C447.988 218.75 447.641 218.692 447.275 218.692H400.508C398.664 218.692 397.17 220.186 397.17 222.03V222.036C397.17 223.88 398.664 225.374 400.508 225.374H416.252C417.208 225.374 418.075 225.76 418.698 226.389C419.38 227.071 419.775 228.023 419.704 229.076C419.58 230.916 417.946 232.295 416.102 232.295H384.347C382.503 232.295 381.009 233.789 381.009 235.633C381.009 237.477 382.503 238.971 384.347 238.971H460.88C461.798 238.971 462.633 238.598 463.243 237.995C463.899 237.339 464.282 236.41 464.21 235.389C464.086 233.618 462.51 232.295 460.734 232.295Z" fill="#E8CA4D"/>
<path d="M607.391 232.295H587.744C585.94 232.295 584.326 230.98 584.149 229.185C583.946 227.122 585.563 225.374 587.592 225.374H593.932C595.776 225.374 597.271 223.88 597.271 222.036V222.03C597.271 220.554 596.307 219.295 594.972 218.859C594.645 218.75 594.298 218.692 593.932 218.692H547.165C545.321 218.692 543.827 220.186 543.827 222.03V222.036C543.827 223.88 545.321 225.374 547.165 225.374H562.909C563.865 225.374 564.732 225.76 565.355 226.389C566.037 227.071 566.432 228.023 566.361 229.076C566.237 230.916 564.604 232.295 562.76 232.295H531.004C529.16 232.295 527.666 233.789 527.666 235.633C527.666 237.477 529.16 238.971 531.004 238.971H607.538C608.456 238.971 609.29 238.598 609.9 237.995C610.556 237.339 610.939 236.41 610.867 235.389C610.743 233.618 609.167 232.295 607.391 232.295Z" fill="#E8CA4D"/>
<path d="M509.824 261.811H488.777C486.203 261.811 483.9 259.935 483.647 257.373C483.357 254.429 485.665 251.935 488.56 251.935H497.608C500.239 251.935 502.372 249.802 502.372 247.171V247.162C502.372 245.055 500.998 243.259 499.092 242.636C498.625 242.48 498.13 242.398 497.608 242.398H444.847C442.216 242.398 440.083 244.531 440.083 247.162V247.171C440.083 249.802 442.216 251.935 444.847 251.935H453.334C454.699 251.935 455.936 252.485 456.825 253.383C457.798 254.356 458.362 255.716 458.261 257.218C458.085 259.844 455.753 261.811 453.121 261.811H435.765C433.134 261.811 431.001 263.944 431.001 266.575C431.001 269.206 433.134 271.339 435.765 271.339H510.034C511.344 271.339 512.535 270.807 513.405 269.946C514.341 269.01 514.887 267.684 514.785 266.227C514.607 263.699 512.358 261.811 509.824 261.811Z" fill="#E8CA4D"/>
<path d="M305.432 206.113H335.075C337.649 206.113 339.952 204.236 340.205 201.674C340.495 198.73 338.187 196.237 335.292 196.237H322.127C319.496 196.237 317.363 194.104 317.363 191.473V191.463C317.363 189.356 318.737 187.561 320.643 186.938C321.11 186.782 321.605 186.699 322.127 186.699H407.859C410.49 186.699 412.623 188.832 412.623 191.463V191.473C412.623 194.104 410.49 196.237 407.859 196.237H380.136C378.771 196.237 377.534 196.786 376.645 197.684C375.672 198.657 375.108 200.017 375.209 201.519C375.385 204.145 377.717 206.113 380.349 206.113H416.941C419.572 206.113 421.705 208.246 421.705 210.877C421.705 213.508 419.572 215.641 416.941 215.641H305.223C303.913 215.641 302.722 215.109 301.852 214.248C300.916 213.312 300.37 211.986 300.472 210.529C300.65 208.001 302.898 206.113 305.432 206.113Z" fill="#E8CA4D"/>
<path d="M679.446 261.811H658.398C655.824 261.811 653.521 259.935 653.268 257.373C652.978 254.429 655.286 251.935 658.181 251.935H667.229C669.86 251.935 671.993 249.802 671.993 247.171V247.162C671.993 245.055 670.619 243.259 668.713 242.636C668.246 242.48 667.751 242.398 667.229 242.398H614.468C611.837 242.398 609.704 244.531 609.704 247.162V247.171C609.704 249.802 611.837 251.935 614.468 251.935H622.955C624.32 251.935 625.557 252.485 626.446 253.383C627.419 254.356 627.983 255.716 627.882 257.218C627.706 259.844 625.374 261.811 622.742 261.811H605.386C602.755 261.811 600.622 263.944 600.622 266.575C600.622 269.206 602.755 271.339 605.386 271.339H679.655C680.965 271.339 682.156 270.807 683.026 269.946C683.962 269.01 684.508 267.684 684.406 266.227C684.228 263.699 681.98 261.811 679.446 261.811Z" fill="#E8CA4D"/>
<path d="M475.054 206.113H504.696C507.27 206.113 509.573 204.236 509.826 201.674C510.116 198.73 507.808 196.237 504.913 196.237H491.748C489.117 196.237 486.984 194.104 486.984 191.473V191.463C486.984 189.356 488.358 187.561 490.264 186.938C490.731 186.782 491.226 186.699 491.748 186.699H577.48C580.111 186.699 582.244 188.832 582.244 191.463V191.473C582.244 194.104 580.111 196.237 577.48 196.237H549.757C548.392 196.237 547.155 196.786 546.266 197.684C545.293 198.657 544.729 200.017 544.83 201.519C545.006 204.145 547.338 206.113 549.97 206.113H586.562C589.193 206.113 591.326 208.246 591.326 210.877C591.326 213.508 589.193 215.641 586.562 215.641H474.844C473.534 215.641 472.343 215.109 471.473 214.248C470.537 213.312 469.991 211.986 470.093 210.529C470.271 208.001 472.52 206.113 475.054 206.113Z" fill="#E8CA4D"/>
<path d="M340.203 261.811H319.156C316.582 261.811 314.278 259.935 314.025 257.373C313.735 254.429 316.044 251.935 318.939 251.935H327.987C330.618 251.935 332.751 249.802 332.751 247.171V247.162C332.751 245.055 331.377 243.259 329.471 242.636C329.004 242.48 328.509 242.398 327.987 242.398H275.226C272.595 242.398 270.462 244.531 270.462 247.162V247.171C270.462 249.802 272.595 251.935 275.226 251.935H283.713C285.078 251.935 286.315 252.485 287.204 253.383C288.177 254.356 288.74 255.716 288.639 257.218C288.463 259.844 286.131 261.811 283.499 261.811H266.144C263.513 261.811 261.38 263.944 261.38 266.575C261.38 269.206 263.513 271.339 266.144 271.339H340.412C341.722 271.339 342.914 270.807 343.784 269.946C344.72 269.01 345.266 267.684 345.164 266.227C344.986 263.699 342.737 261.811 340.203 261.811Z" fill="#E8CA4D"/>
<path d="M135.811 206.113H165.454C168.028 206.113 170.331 204.236 170.584 201.674C170.874 198.73 168.566 196.237 165.671 196.237H152.506C149.875 196.237 147.742 194.104 147.742 191.473V191.463C147.742 189.356 149.116 187.561 151.022 186.938C151.489 186.782 151.984 186.699 152.506 186.699H238.238C240.869 186.699 243.002 188.832 243.002 191.463V191.473C243.002 194.104 240.869 196.237 238.238 196.237H210.514C209.149 196.237 207.913 196.786 207.024 197.684C206.051 198.657 205.487 200.017 205.588 201.519C205.764 204.145 208.096 206.113 210.728 206.113H247.32C249.951 206.113 252.084 208.246 252.084 210.877C252.084 213.508 249.951 215.641 247.32 215.641H135.602C134.292 215.641 133.101 215.109 132.231 214.248C131.295 213.312 130.748 211.986 130.85 210.529C131.028 208.001 133.277 206.113 135.811 206.113Z" fill="#E8CA4D"/>
<path d="M170.582 261.811H149.534C146.96 261.811 144.657 259.935 144.404 257.373C144.114 254.429 146.423 251.935 149.318 251.935H158.366C160.997 251.935 163.13 249.802 163.13 247.171V247.162C163.13 245.055 161.756 243.259 159.85 242.636C159.383 242.48 158.888 242.398 158.366 242.398H105.605C102.974 242.398 100.841 244.531 100.841 247.162V247.171C100.841 249.802 102.974 251.935 105.605 251.935H114.092C115.457 251.935 116.693 252.485 117.582 253.383C118.555 254.356 119.119 255.716 119.018 257.218C118.842 259.844 116.51 261.811 113.878 261.811H96.5232C93.8922 261.811 91.7592 263.944 91.7592 266.575C91.7592 269.206 93.8922 271.339 96.5232 271.339H170.791C172.101 271.339 173.293 270.807 174.163 269.946C175.099 269.01 175.645 267.684 175.543 266.227C175.365 263.699 173.116 261.811 170.582 261.811Z" fill="#E8CA4D"/>
<path d="M-33.8098 206.113H-4.16681C-1.5928 206.113 0.710178 204.236 0.9632 201.674C1.25318 198.73 -1.05581 196.237 -3.9508 196.237H-17.1148C-19.7458 196.237 -21.8788 194.104 -21.8788 191.473V191.463C-21.8788 189.356 -20.5058 187.561 -18.5998 186.938C-18.1328 186.782 -17.6368 186.699 -17.1148 186.699H68.6172C71.2482 186.699 73.3812 188.832 73.3812 191.463V191.473C73.3812 194.104 71.2482 196.237 68.6172 196.237H40.8932C39.5282 196.237 38.2922 196.786 37.4032 197.684C36.4302 198.657 35.8662 200.017 35.9672 201.519C36.1432 204.145 38.4752 206.113 41.1072 206.113H77.6982C80.3292 206.113 82.4622 208.246 82.4622 210.877C82.4622 213.508 80.3292 215.641 77.6982 215.641H-34.0188C-35.3288 215.641 -36.5198 215.109 -37.3898 214.248C-38.3258 213.312 -38.8728 211.986 -38.7708 210.529C-38.5928 208.001 -36.3438 206.113 -33.8098 206.113Z" fill="#E8CA4D"/>
<path d="M505.478 444.631C503.816 350.634 484.127 248.681 459.972 248.681C435.817 248.681 416.128 350.634 414.466 444.631H505.478Z" fill="#E8CA4D"/>
<path d="M422.942 452.318C421.694 381.764 406.916 305.238 388.785 305.238C370.654 305.238 355.876 381.764 354.628 452.318H422.942Z" fill="#E8CA4D"/>
<path d="M297.14 439.134C295.721 385.692 278.916 343.558 258.299 343.558C237.682 343.558 220.877 385.692 219.458 439.134H297.14Z" fill="#E8CA4D"/>
<path d="M231.107 439.133C229.688 358.903 212.883 295.647 192.266 295.647C171.649 295.647 154.844 358.903 153.425 439.133H231.107Z" fill="#E8CA4D"/>
<path d="M404.303 438.749C396.37 421.933 379.289 410.305 359.466 410.305C339.647 410.305 322.552 421.943 314.637 438.749H404.303Z" fill="#AAB20F"/>
<path d="M147.951 438.752V438.735C147.522 436.836 147.109 434.922 146.729 432.99C145.309 425.808 144.219 418.51 143.493 411.113C158.402 387.189 184.951 371.29 215.215 371.29C256.045 371.29 290.073 400.249 297.965 438.752H147.951Z" fill="#AAB20F"/>
<path d="M607.376 399.586C606.864 409.922 605.659 420.075 603.826 430.014C602.769 435.76 601.514 441.423 600.045 447.004H450.856C451.005 446.492 451.154 445.98 451.319 445.485C451.451 445.006 451.599 444.543 451.731 444.081C451.88 443.619 452.045 443.14 452.21 442.678C455.413 433.201 460.036 424.384 465.831 416.476C483.547 392.255 512.176 376.52 544.487 376.52C568.477 376.52 590.42 385.205 607.376 399.586Z" fill="#AAB20F"/>
<path d="M637.5 485.008C637.5 497.374 627.478 507.396 615.112 507.396H541.772C535.531 507.396 530.463 512.465 530.463 518.706C530.463 521.827 531.717 524.667 533.781 526.714C535.812 528.778 538.652 530.032 541.772 530.032H172.168C175.289 530.032 178.112 528.778 180.176 526.714C182.207 524.667 183.478 521.827 183.478 518.706C183.478 512.465 178.409 507.396 172.168 507.396H136.852C124.486 507.396 114.464 497.374 114.464 485.008C114.464 478.833 116.974 473.22 121.019 469.175C125.081 465.13 130.661 462.62 136.852 462.62H615.112C627.478 462.62 637.5 472.642 637.5 485.008Z" fill="#718501"/>
<path d="M600.996 541.953C600.996 548.535 595.66 553.87 589.078 553.87H162.888C156.306 553.87 150.97 548.535 150.97 541.953C150.97 535.371 156.306 530.036 162.888 530.036H589.078C595.66 530.036 600.996 535.371 600.996 541.953Z" fill="#4DC8F0"/>
<path d="M531.184 522.665H182.752C182.179 524.199 181.299 525.581 180.173 526.715C178.111 528.777 175.291 530.035 172.167 530.035H541.773C538.65 530.035 535.814 528.777 533.782 526.715C532.639 525.581 531.756 524.199 531.184 522.665Z" fill="#3E4D01"/>
<path d="M536.057 581.283C536.057 588.879 529.885 595.05 522.289 595.05H222.763C215.167 595.05 208.995 588.879 208.995 581.283C208.995 577.477 210.542 574.036 213.029 571.549C215.531 569.047 218.957 567.516 222.763 567.516H257.12C260.895 567.516 263.943 564.468 263.943 560.693C263.943 558.798 263.184 557.099 261.941 555.871C260.713 554.628 259.015 553.87 257.12 553.87H509.432C505.657 553.87 502.609 556.918 502.609 560.693C502.609 562.588 503.367 564.286 504.61 565.514C505.838 566.757 507.552 567.516 509.432 567.516H522.289C529.885 567.516 536.057 573.672 536.057 581.283Z" fill="#0ABBE3"/>
<g opacity="0.3">
<path d="M444.83 553.875L406.608 595.052H383.906L422.128 553.875H444.83Z" fill="white"/>
<path d="M470.57 553.875L432.348 595.052H421.732L459.954 553.875H470.57Z" fill="white"/>
<path d="M58.226 553.875L20.005 595.052H-2.69702L35.524 553.875H58.226Z" fill="white"/>
<path d="M83.9659 553.875L45.7439 595.052H35.1279L73.3499 553.875H83.9659Z" fill="white"/>
</g>
<path d="M636.164 450.684C636.164 457.277 630.82 462.621 624.227 462.621H124.437C117.844 462.621 112.5 457.277 112.5 450.684C112.5 444.091 117.844 438.747 124.437 438.747H624.227C630.82 438.747 636.164 444.091 636.164 450.684Z" fill="#96A706"/>
<path d="M313.57 411.426C313.57 420.677 306.058 428.158 296.776 428.158C287.555 428.158 280.044 420.677 280.044 411.426C280.044 406.724 281.968 402.48 285.113 399.427C283.678 397.259 282.853 394.663 282.853 391.854C282.853 387.366 284.991 383.335 288.288 380.801C286.853 378.969 286.029 376.679 286.029 374.206C286.029 368.252 290.853 363.428 296.807 363.428C302.761 363.428 307.585 368.252 307.585 374.206C307.585 376.679 306.761 379 305.326 380.832C308.654 383.366 310.761 387.366 310.761 391.854C310.761 394.663 309.936 397.259 308.501 399.427C311.646 402.48 313.57 406.724 313.57 411.426Z" fill="#718501"/>
<path d="M303.977 413.649L298.253 420.07V443.044C298.253 443.694 297.729 444.218 297.079 444.218C296.429 444.218 295.904 443.694 295.904 443.044V410.313L290.008 404.362C289.554 403.9 289.554 403.157 290.016 402.703C290.478 402.241 291.222 402.248 291.676 402.71L295.904 406.978V381.678C295.904 381.028 296.429 380.504 297.079 380.504C297.729 380.504 298.253 381.028 298.253 381.678V416.538L302.223 412.091C302.661 411.606 303.398 411.558 303.883 411.989C304.368 412.427 304.408 413.164 303.977 413.649Z" fill="#9D3217"/>
<path d="M399.101 415.327C399.101 423.478 392.484 430.068 384.306 430.068C376.182 430.068 369.565 423.478 369.565 415.327C369.565 411.184 371.259 407.445 374.03 404.755C372.766 402.845 372.039 400.559 372.039 398.084C372.039 394.13 373.923 390.579 376.828 388.346C375.564 386.732 374.837 384.714 374.837 382.535C374.837 377.289 379.087 373.04 384.333 373.04C389.579 373.04 393.829 377.289 393.829 382.535C393.829 384.714 393.102 386.759 391.838 388.373C394.77 390.606 396.627 394.13 396.627 398.084C396.627 400.559 395.9 402.845 394.636 404.755C397.407 407.445 399.101 411.184 399.101 415.327Z" fill="#718501"/>
<path d="M390.651 417.285L385.608 422.942V443.182C385.608 443.755 385.146 444.217 384.573 444.217C384 444.217 383.538 443.755 383.538 443.182V414.346L378.344 409.103C377.944 408.696 377.944 408.041 378.351 407.641C378.758 407.234 379.413 407.24 379.813 407.647L383.538 411.407V389.118C383.538 388.545 384 388.083 384.573 388.083C385.146 388.083 385.608 388.545 385.608 389.118V419.83L389.105 415.912C389.491 415.484 390.14 415.443 390.568 415.822C390.996 416.208 391.03 416.857 390.651 417.285Z" fill="#9D3217"/>
<path d="M311.036 443.012L323.627 395.865H365.101L377.705 443.012H384.333L347.462 304.986C347.09 303.581 345.824 302.617 344.364 302.617C342.918 302.617 341.652 303.581 341.266 304.986L304.395 443.012H311.036ZM344.364 318.246L357.5 367.39H331.242L344.364 318.246ZM329.451 374.054H359.276L363.325 389.214H325.403L329.451 374.054Z" fill="#9D3217"/>
<path d="M398.26 314.455L362.708 310.708C360.466 310.484 358.632 308.981 357.891 306.978L352.796 306.937C352.94 306.277 353.014 305.603 353.019 304.901C353.02 304.886 353.019 304.887 353.019 304.873C353.025 304.17 352.963 303.468 352.83 302.806L357.926 302.848C358.7 300.859 360.556 299.399 362.803 299.197L398.41 296.047C400.532 295.858 402.35 297.538 402.333 299.672L402.241 310.895C402.224 313.029 400.378 314.679 398.26 314.455Z" fill="#9EA0B6"/>
<path d="M402.286 305.304L353.019 304.901C353.019 304.887 353.019 304.887 353.019 304.873C353.025 304.17 352.962 303.469 352.829 302.806L357.925 302.847C358.699 300.857 360.556 299.399 362.803 299.197L398.41 296.046C400.531 295.857 402.35 297.539 402.332 299.673L402.286 305.304Z" fill="#BEC2D4"/>
<path d="M389.09 273.004L361.301 295.493C359.556 296.919 357.198 297.155 355.258 296.262L351.625 299.836C351.26 299.268 350.836 298.738 350.344 298.238C350.334 298.228 350.334 298.228 350.324 298.218C349.832 297.717 349.29 297.265 348.728 296.891L352.361 293.317C351.5 291.363 351.782 289.017 353.228 287.287L376.179 259.88C377.545 258.246 380.02 258.15 381.517 259.671L389.386 267.671C390.883 269.192 390.745 271.664 389.09 273.004Z" fill="#9EA0B6"/>
<path d="M385.465 263.686L350.343 298.238C350.333 298.228 350.334 298.228 350.324 298.218C349.832 297.718 349.289 297.265 348.728 296.891L352.36 293.317C351.499 291.362 351.782 289.018 353.228 287.287L376.179 259.881C377.545 258.246 380.02 258.15 381.516 259.671L385.465 263.686Z" fill="#BEC2D4"/>
<path d="M353.294 250.179L349.547 285.73C349.322 287.973 347.819 289.806 345.817 290.547L345.775 295.642C345.115 295.499 344.442 295.425 343.739 295.419C343.725 295.419 343.726 295.419 343.712 295.419C343.009 295.413 342.306 295.476 341.644 295.608L341.687 290.512C339.697 289.739 338.238 287.882 338.035 285.636L334.885 250.028C334.696 247.906 336.376 246.088 338.51 246.105L349.733 246.197C351.867 246.215 353.517 248.061 353.294 250.179Z" fill="#9EA0B6"/>
<path d="M344.142 246.151L343.739 295.418C343.725 295.418 343.725 295.418 343.711 295.418C343.008 295.412 342.307 295.475 341.645 295.607L341.686 290.511C339.696 289.738 338.238 287.88 338.035 285.634L334.885 250.027C334.695 247.905 336.377 246.087 338.511 246.104L344.142 246.151Z" fill="#BEC2D4"/>
<path d="M311.843 259.349L334.332 287.138C335.758 288.883 335.993 291.241 335.1 293.181L338.674 296.814C338.106 297.179 337.577 297.603 337.076 298.095C337.066 298.105 337.066 298.105 337.056 298.115C336.556 298.607 336.104 299.149 335.729 299.711L332.156 296.078C330.201 296.939 327.856 296.656 326.125 295.211L298.719 272.26C297.085 270.894 296.988 268.419 298.509 266.922L306.509 259.052C308.031 257.556 310.503 257.694 311.843 259.349Z" fill="#9EA0B6"/>
<path d="M302.524 262.973L337.076 298.096C337.066 298.105 337.066 298.105 337.056 298.115C336.556 298.607 336.103 299.149 335.729 299.711L332.155 296.078C330.2 296.939 327.856 296.656 326.125 295.211L298.719 272.26C297.084 270.894 296.988 268.419 298.509 266.922L302.524 262.973Z" fill="#BEC2D4"/>
<path d="M289.017 295.144L324.568 298.891C326.811 299.116 328.644 300.619 329.385 302.621L334.48 302.663C334.337 303.323 334.263 303.996 334.257 304.699C334.257 304.713 334.258 304.712 334.258 304.727C334.252 305.429 334.314 306.131 334.447 306.794L329.351 306.751C328.577 308.741 326.72 310.2 324.474 310.402L288.866 313.552C286.745 313.742 284.926 312.061 284.944 309.927L285.036 298.705C285.053 296.571 286.899 294.92 289.017 295.144Z" fill="#9EA0B6"/>
<path d="M284.991 304.296L334.258 304.698C334.258 304.712 334.258 304.712 334.258 304.727C334.252 305.429 334.315 306.131 334.447 306.793L329.351 306.752C328.578 308.742 326.72 310.2 324.474 310.402L288.867 313.553C286.745 313.742 284.927 312.061 284.944 309.927L284.991 304.296Z" fill="#BEC2D4"/>
<path d="M298.188 336.595L325.976 314.106C327.721 312.68 330.079 312.445 332.019 313.337L335.652 309.763C336.017 310.331 336.441 310.861 336.934 311.361C336.944 311.371 336.944 311.371 336.953 311.381C337.446 311.882 337.987 312.334 338.549 312.708L334.916 316.282C335.777 318.237 335.495 320.582 334.049 322.313L311.099 349.719C309.732 351.353 307.257 351.45 305.761 349.928L297.891 341.928C296.394 340.407 296.532 337.935 298.188 336.595Z" fill="#9EA0B6"/>
<path d="M301.812 345.914L336.934 311.362C336.944 311.372 336.944 311.371 336.953 311.381C337.446 311.882 337.988 312.335 338.55 312.709L334.917 316.283C335.778 318.237 335.495 320.582 334.049 322.313L311.099 349.719C309.732 351.353 307.257 351.45 305.761 349.928L301.812 345.914Z" fill="#BEC2D4"/>
<path d="M333.983 359.42L337.73 323.869C337.955 321.626 339.458 319.793 341.46 319.052L341.502 313.957C342.162 314.1 342.835 314.174 343.538 314.18C343.552 314.18 343.55 314.18 343.565 314.18C344.267 314.186 344.97 314.123 345.632 313.991L345.59 319.087C347.58 319.86 349.039 321.717 349.241 323.963L352.391 359.571C352.58 361.693 350.9 363.511 348.766 363.494L337.543 363.402C335.409 363.384 333.759 361.538 333.983 359.42Z" fill="#9EA0B6"/>
<path d="M343.135 363.447L343.538 314.18C343.552 314.18 343.552 314.18 343.566 314.18C344.269 314.186 344.97 314.123 345.632 313.99L345.591 319.086C347.581 319.86 349.04 321.718 349.242 323.964L352.393 359.571C352.582 361.692 350.9 363.511 348.766 363.493L343.135 363.447Z" fill="#BEC2D4"/>
<path d="M375.434 350.25L352.945 322.462C351.519 320.717 351.283 318.359 352.176 316.419L348.743 312.929C349.311 312.563 349.84 312.139 350.341 311.647C350.351 311.637 350.351 311.637 350.361 311.627C350.861 311.135 351.313 310.593 351.687 310.031L355.121 313.522C357.075 312.661 359.421 312.943 361.151 314.389L388.558 337.339C390.192 338.706 390.288 341.181 388.767 342.677L380.767 350.547C379.246 352.044 376.774 351.906 375.434 350.25Z" fill="#9EA0B6"/>
<path d="M384.753 346.626L350.341 311.646C350.351 311.636 350.351 311.637 350.361 311.627C350.861 311.135 351.314 310.593 351.688 310.031L355.122 313.521C357.076 312.66 359.421 312.943 361.151 314.389L388.558 337.339C390.192 338.706 390.288 341.181 388.767 342.677L384.753 346.626Z" fill="#BEC2D4"/>
<path d="M353.826 304.808C353.826 310.425 349.255 314.978 343.638 314.978C338.021 314.978 333.45 310.425 333.45 304.808C333.45 299.173 338.021 294.62 343.638 294.62C349.255 294.62 353.826 299.173 353.826 304.808Z" fill="#BEC2D4"/>
<path d="M349.263 304.804C349.263 307.905 346.739 310.419 343.638 310.419C340.537 310.419 338.013 307.905 338.013 304.804C338.013 301.693 340.537 299.179 343.638 299.179C346.739 299.179 349.263 301.693 349.263 304.804Z" fill="#EBEAEE"/>
<path d="M240.941 402.005H287.597L264.071 374.525L240.941 402.005Z" fill="#C43535"/>
<path d="M232.967 402.204V441.15H278.833V402.204L259.459 379.93L240.941 402.006H233.165L232.967 402.204Z" fill="#F9D6B0"/>
<path d="M173.131 402.203V441.149H232.967V402.203L233.165 402.005H173.329L173.131 402.203Z" fill="#EFC295"/>
<path d="M232.967 409.147H173.131V402.203L173.329 402.005H233.165L232.967 402.203V409.147Z" fill="#F9D6B0"/>
<path d="M218.668 414.589V430.081C218.668 430.771 219.227 431.33 219.917 431.33H227.831C228.521 431.33 229.08 430.771 229.08 430.081V414.589C229.08 413.899 228.521 413.34 227.831 413.34H219.917C219.227 413.34 218.668 413.899 218.668 414.589Z" fill="#9D3217"/>
<path d="M245.488 414.589V430.081C245.488 430.771 246.047 431.33 246.737 431.33H254.651C255.341 431.33 255.9 430.771 255.9 430.081V414.589C255.9 413.899 255.341 413.34 254.651 413.34H246.737C246.047 413.34 245.488 413.899 245.488 414.589Z" fill="#9D3217"/>
<path d="M260.908 414.589V430.081C260.908 430.771 261.467 431.33 262.157 431.33H270.071C270.761 431.33 271.32 430.771 271.32 430.081V414.589C271.32 413.899 270.761 413.34 270.071 413.34H262.157C261.467 413.34 260.908 413.899 260.908 414.589Z" fill="#9D3217"/>
<path d="M179.594 414.589V430.081C179.594 430.771 180.153 431.33 180.843 431.33H188.757C189.447 431.33 190.006 430.771 190.006 430.081V414.589C190.006 413.899 189.447 413.34 188.757 413.34H180.843C180.153 413.34 179.594 413.899 179.594 414.589Z" fill="#9D3217"/>
<path d="M218.664 414.591V415.112H226.007C226.696 415.112 227.259 415.675 227.259 416.364V431.327H227.83C228.519 431.327 229.082 430.773 229.082 430.084V414.591C229.082 413.902 228.519 413.339 227.83 413.339H219.916C219.227 413.339 218.664 413.902 218.664 414.591Z" fill="#82210D"/>
<path d="M245.49 414.591V415.112H252.833C253.522 415.112 254.077 415.675 254.077 416.364V431.327H254.648C255.337 431.327 255.9 430.773 255.9 430.084V414.591C255.9 413.902 255.337 413.339 254.648 413.339H246.734C246.045 413.339 245.49 413.902 245.49 414.591Z" fill="#82210D"/>
<path d="M260.907 414.591V415.112H268.25C268.939 415.112 269.502 415.675 269.502 416.364V431.327H270.073C270.762 431.327 271.317 430.773 271.317 430.084V414.591C271.317 413.902 270.762 413.339 270.073 413.339H262.159C261.47 413.339 260.907 413.902 260.907 414.591Z" fill="#82210D"/>
<path d="M179.596 414.591V415.112H186.939C187.628 415.112 188.183 415.675 188.183 416.364V431.327H188.754C189.443 431.327 190.006 430.773 190.006 430.084V414.591C190.006 413.902 189.443 413.339 188.754 413.339H180.84C180.151 413.339 179.596 413.902 179.596 414.591Z" fill="#82210D"/>
<path d="M195.142 422.354V441.15H211.814V422.354C211.814 417.75 208.082 414.018 203.478 414.018C198.874 414.018 195.142 417.75 195.142 422.354Z" fill="#9D3217"/>
<path d="M199.273 415.155C199.802 415.054 200.357 414.995 200.92 414.995C205.524 414.995 209.254 418.726 209.254 423.33V441.149H211.817V422.355C211.817 417.751 208.078 414.021 203.482 414.021C201.944 414.021 200.508 414.432 199.273 415.155Z" fill="#82210D"/>
<path d="M240.952 401.986H165.052L188.33 374.45H264.09L240.952 401.986Z" fill="#E05F5F"/>
<path d="M264.072 374.46H264.006L264.072 374.526V374.46Z" stroke="#AAB20F" stroke-width="0.1" stroke-linecap="round" stroke-linejoin="round"/>
<path d="M252.607 396.595C252.607 399.813 255.22 402.418 258.438 402.418C261.656 402.418 264.269 399.813 264.269 396.595C264.269 393.369 261.656 390.764 258.438 390.764C255.22 390.764 252.607 393.369 252.607 396.595Z" fill="#9D3217"/>
<path d="M253.246 393.949C254.288 392.974 255.682 392.386 257.219 392.386C260.437 392.386 263.05 394.991 263.05 398.217C263.05 399.166 262.824 400.065 262.412 400.855C263.555 399.796 264.268 398.276 264.268 396.596C264.268 393.37 261.656 390.765 258.438 390.765C256.17 390.765 254.204 392.059 253.246 393.949Z" fill="#82210D"/>
<path d="M184.31 379.203H260.093L260.798 378.363H185.015L184.31 379.203Z" fill="#C43535"/>
<path d="M180.26 383.992H256.076L256.782 383.152H180.974L180.26 383.992Z" fill="#C43535"/>
<path d="M176.21 388.789H252.044L252.75 387.949H176.916L176.21 388.789Z" fill="#C43535"/>
<path d="M172.161 393.578H248.019L248.725 392.738H172.867L172.161 393.578Z" fill="#C43535"/>
<path d="M168.111 398.367H243.995L244.701 397.527H168.825L168.111 398.367Z" fill="#C43535"/>
<path d="M520.037 331.265H458.407C457.571 331.265 457.121 330.284 457.665 329.649L488.733 293.439C489.126 292.981 489.835 292.984 490.224 293.445L509.915 316.791L520.784 329.655C521.321 330.291 520.87 331.265 520.037 331.265Z" fill="#C43535"/>
<path d="M533.366 331.265V449.141H465.024V331.183L493.505 297.841L522.066 331.265H533.366Z" fill="#F9D6B0"/>
<path d="M582.668 331.265V449.141H533.366V331.265H582.668Z" fill="#EFC295"/>
<path d="M582.668 340.894V331.264H533.366V340.894H582.668Z" fill="#F9D6B0"/>
<path d="M596.6 331.285C596.417 331.667 596.034 331.911 595.606 331.911H520.597C520.276 331.911 519.985 331.774 519.771 331.529L488.837 294.708C488.562 294.387 488.501 293.944 488.684 293.546C488.867 293.164 489.234 292.919 489.662 292.919H564.488C564.809 292.919 565.115 293.056 565.314 293.301L596.432 330.122C596.723 330.443 596.768 330.903 596.6 331.285Z" fill="#E05F5F"/>
<path d="M485.069 352.254V372.62C485.069 373.589 484.284 374.375 483.315 374.375H474.829C473.86 374.375 473.075 373.589 473.075 372.62V352.254C473.075 351.285 473.86 350.499 474.829 350.499H483.315C484.284 350.499 485.069 351.285 485.069 352.254Z" fill="#9D3217"/>
<path d="M503.434 352.254V372.62C503.434 373.589 502.649 374.375 501.68 374.375H493.194C492.225 374.375 491.44 373.589 491.44 372.62V352.254C491.44 351.285 492.225 350.499 493.194 350.499H501.68C502.649 350.499 503.434 351.285 503.434 352.254Z" fill="#9D3217"/>
<path d="M521.799 352.254V372.62C521.799 373.589 521.014 374.375 520.045 374.375H511.559C510.59 374.375 509.805 373.589 509.805 372.62V352.254C509.805 351.285 510.59 350.499 511.559 350.499H520.045C521.014 350.499 521.799 351.285 521.799 352.254Z" fill="#9D3217"/>
<path d="M485.07 352.239V352.781H477.176C476.17 352.781 475.396 353.555 475.396 354.484V374.375H474.854C473.848 374.375 473.074 373.601 473.074 372.595V352.239C473.074 351.31 473.848 350.537 474.854 350.537H483.29C484.296 350.537 485.07 351.31 485.07 352.239Z" fill="#82210D"/>
<path d="M503.413 352.239V352.781H495.519C494.59 352.781 493.739 353.555 493.739 354.484V374.375H493.197C492.191 374.375 491.417 373.601 491.417 372.595V352.239C491.417 351.31 492.191 350.537 493.197 350.537H501.711C502.64 350.537 503.413 351.31 503.413 352.239Z" fill="#82210D"/>
<path d="M521.834 352.239V352.781H513.863C512.934 352.781 512.16 353.555 512.16 354.484V374.375H511.54C510.611 374.375 509.838 373.601 509.838 372.595V352.239C509.838 351.31 510.611 350.537 511.54 350.537H520.054C520.983 350.537 521.834 351.31 521.834 352.239Z" fill="#82210D"/>
<path d="M485.069 386.478V406.844C485.069 407.813 484.284 408.599 483.315 408.599H474.829C473.86 408.599 473.075 407.813 473.075 406.844V386.478C473.075 385.509 473.86 384.723 474.829 384.723H483.315C484.284 384.723 485.069 385.509 485.069 386.478Z" fill="#9D3217"/>
<path d="M503.434 386.478V406.844C503.434 407.813 502.649 408.599 501.68 408.599H493.194C492.225 408.599 491.44 407.813 491.44 406.844V386.478C491.44 385.509 492.225 384.723 493.194 384.723H501.68C502.649 384.723 503.434 385.509 503.434 386.478Z" fill="#9D3217"/>
<path d="M521.799 386.478V406.844C521.799 407.813 521.014 408.599 520.045 408.599H511.559C510.59 408.599 509.805 407.813 509.805 406.844V386.478C509.805 385.509 510.59 384.723 511.559 384.723H520.045C521.014 384.723 521.799 385.509 521.799 386.478Z" fill="#9D3217"/>
<path d="M485.07 386.449V386.991H477.176C476.17 386.991 475.396 387.765 475.396 388.694V408.585H474.854C473.848 408.585 473.074 407.811 473.074 406.882V386.449C473.074 385.52 473.848 384.747 474.854 384.747H483.29C484.296 384.747 485.07 385.52 485.07 386.449Z" fill="#82210D"/>
<path d="M503.413 386.449V386.991H495.519C494.59 386.991 493.739 387.765 493.739 388.694V408.585H493.197C492.191 408.585 491.417 407.811 491.417 406.882V386.449C491.417 385.52 492.191 384.747 493.197 384.747H501.711C502.64 384.747 503.413 385.52 503.413 386.449Z" fill="#82210D"/>
<path d="M521.834 386.449V386.991H513.863C512.934 386.991 512.16 387.765 512.16 388.694V408.585H511.54C510.611 408.585 509.838 407.811 509.838 406.882V386.449C509.838 385.52 510.611 384.747 511.54 384.747H520.054C520.983 384.747 521.834 385.52 521.834 386.449Z" fill="#82210D"/>
<path d="M553.863 352.254V372.62C553.863 373.589 553.078 374.375 552.109 374.375H543.623C542.654 374.375 541.869 373.589 541.869 372.62V352.254C541.869 351.285 542.654 350.499 543.623 350.499H552.109C553.078 350.499 553.863 351.285 553.863 352.254Z" fill="#9D3217"/>
<path d="M572.228 352.254V372.62C572.228 373.589 571.443 374.375 570.474 374.375H561.988C561.019 374.375 560.234 373.589 560.234 372.62V352.254C560.234 351.285 561.019 350.499 561.988 350.499H570.474C571.443 350.499 572.228 351.285 572.228 352.254Z" fill="#9D3217"/>
<path d="M553.842 352.239V352.781H545.948C545.019 352.781 544.168 353.555 544.168 354.484V374.375H543.626C542.62 374.375 541.846 373.601 541.846 372.595V352.239C541.846 351.31 542.62 350.537 543.626 350.537H552.14C553.069 350.537 553.842 351.31 553.842 352.239Z" fill="#82210D"/>
<path d="M572.263 352.239V352.781H564.292C563.363 352.781 562.589 353.555 562.589 354.484V374.375H561.969C561.04 374.375 560.267 373.601 560.267 372.595V352.239C560.267 351.31 561.04 350.537 561.969 350.537H570.483C571.412 350.537 572.263 351.31 572.263 352.239Z" fill="#82210D"/>
<path d="M553.863 386.478V406.844C553.863 407.813 553.078 408.599 552.109 408.599H543.623C542.654 408.599 541.869 407.813 541.869 406.844V386.478C541.869 385.509 542.654 384.723 543.623 384.723H552.109C553.078 384.723 553.863 385.509 553.863 386.478Z" fill="#9D3217"/>
<path d="M572.228 386.478V406.844C572.228 407.813 571.443 408.599 570.474 408.599H561.988C561.019 408.599 560.234 407.813 560.234 406.844V386.478C560.234 385.509 561.019 384.723 561.988 384.723H570.474C571.443 384.723 572.228 385.509 572.228 386.478Z" fill="#9D3217"/>
<path d="M553.842 386.449V386.991H545.948C545.019 386.991 544.168 387.765 544.168 388.694V408.585H543.626C542.62 408.585 541.846 407.811 541.846 406.882V386.449C541.846 385.52 542.62 384.747 543.626 384.747H552.14C553.069 384.747 553.842 385.52 553.842 386.449Z" fill="#82210D"/>
<path d="M572.263 386.449V386.991H564.292C563.363 386.991 562.589 387.765 562.589 388.694V408.585H561.969C561.04 408.585 560.267 407.811 560.267 406.882V386.449C560.267 385.52 561.04 384.747 561.969 384.747H570.483C571.412 384.747 572.263 385.52 572.263 386.449Z" fill="#82210D"/>
<path d="M508.081 425.44V449.484H486.753V425.44C486.753 419.551 491.528 414.776 497.417 414.776C503.306 414.776 508.081 419.551 508.081 425.44Z" fill="#9D3217"/>
<path d="M502.796 416.23C502.119 416.101 501.41 416.026 500.69 416.026C494.8 416.026 490.028 420.797 490.028 426.687V449.483H486.75V425.441C486.75 419.551 491.533 414.779 497.412 414.779C499.379 414.779 501.216 415.306 502.796 416.23Z" fill="#82210D"/>
<path d="M568.77 297.381H491.09L490.326 296.479H568.006L568.77 297.381Z" fill="#C43535"/>
<path d="M573.664 303.176H495.953L495.204 302.274H572.899L573.664 303.176Z" fill="#C43535"/>
<path d="M578.556 308.971H500.83L500.066 308.069H577.792L578.556 308.971Z" fill="#C43535"/>
<path d="M583.465 314.767H505.694L504.945 313.865H582.701L583.465 314.767Z" fill="#C43535"/>
<path d="M588.359 320.562H510.572L509.807 319.66H587.594L588.359 320.562Z" fill="#C43535"/>
<path d="M593.252 326.358H515.435L514.67 325.456H592.487L593.252 326.358Z" fill="#C43535"/>
<path d="M502.214 325.334C502.214 330.325 498.161 334.365 493.17 334.365C488.179 334.365 484.126 330.325 484.126 325.334C484.126 320.33 488.179 316.289 493.17 316.289C498.161 316.289 502.214 320.33 502.214 325.334Z" fill="#9D3217"/>
<path d="M501.226 321.228C499.61 319.716 497.447 318.804 495.062 318.804C490.071 318.804 486.018 322.845 486.018 327.849C486.018 329.322 486.369 330.716 487.008 331.941C485.236 330.299 484.128 327.94 484.128 325.334C484.128 320.33 488.181 316.289 493.172 316.289C496.691 316.289 499.74 318.296 501.226 321.228Z" fill="#82210D"/>
<path d="M477.719 370.251V377.069H465.891V370.251H477.719Z" fill="#E05F5F"/>
<path d="M479.631 369.217V364.465C479.631 363.892 479.166 363.427 478.593 363.427H465.017C464.444 363.427 463.979 363.892 463.979 364.465V369.217C463.979 369.79 464.444 370.255 465.017 370.255H478.593C479.166 370.255 479.631 369.79 479.631 369.217Z" fill="#C43535"/>
<path d="M438.582 406.679H388.312L413.66 377.071L438.582 406.679Z" fill="#C43535"/>
<path d="M447.173 406.893V448.856H397.755V406.893L418.63 382.894L438.582 406.68H446.96L447.173 406.893Z" fill="#F9D6B0"/>
<path d="M511.644 406.893V448.856H447.173V406.893L446.96 406.68H511.431L511.644 406.893Z" fill="#EFC295"/>
<path d="M447.173 414.374H511.644V406.893L511.431 406.68H446.96L447.173 406.893V414.374Z" fill="#F9D6B0"/>
<path d="M462.581 420.239V436.931C462.581 437.674 461.978 438.277 461.235 438.277H452.709C451.966 438.277 451.363 437.674 451.363 436.931V420.239C451.363 419.496 451.966 418.893 452.709 418.893H461.235C461.978 418.893 462.581 419.496 462.581 420.239Z" fill="#9D3217"/>
<path d="M433.682 420.239V436.931C433.682 437.674 433.079 438.277 432.336 438.277H423.81C423.067 438.277 422.464 437.674 422.464 436.931V420.239C422.464 419.496 423.067 418.893 423.81 418.893H432.336C433.079 418.893 433.682 419.496 433.682 420.239Z" fill="#9D3217"/>
<path d="M417.068 420.239V436.931C417.068 437.674 416.465 438.277 415.722 438.277H407.196C406.453 438.277 405.85 437.674 405.85 436.931V420.239C405.85 419.496 406.453 418.893 407.196 418.893H415.722C416.465 418.893 417.068 419.496 417.068 420.239Z" fill="#9D3217"/>
<path d="M504.681 420.239V436.931C504.681 437.674 504.078 438.277 503.335 438.277H494.809C494.066 438.277 493.463 437.674 493.463 436.931V420.239C493.463 419.496 494.066 418.893 494.809 418.893H503.335C504.078 418.893 504.681 419.496 504.681 420.239Z" fill="#9D3217"/>
<path d="M462.585 420.241V420.802H454.673C453.931 420.802 453.324 421.409 453.324 422.151V438.274H452.708C451.966 438.274 451.359 437.676 451.359 436.934V420.241C451.359 419.499 451.966 418.892 452.708 418.892H461.236C461.978 418.892 462.585 419.499 462.585 420.241Z" fill="#82210D"/>
<path d="M433.68 420.241V420.802H425.768C425.026 420.802 424.428 421.409 424.428 422.151V438.274H423.813C423.071 438.274 422.464 437.676 422.464 436.934V420.241C422.464 419.499 423.071 418.892 423.813 418.892H432.34C433.082 418.892 433.68 419.499 433.68 420.241Z" fill="#82210D"/>
<path d="M417.069 420.241V420.802H409.157C408.415 420.802 407.808 421.409 407.808 422.151V438.274H407.193C406.451 438.274 405.853 437.676 405.853 436.934V420.241C405.853 419.499 406.451 418.892 407.193 418.892H415.72C416.462 418.892 417.069 419.499 417.069 420.241Z" fill="#82210D"/>
<path d="M504.679 420.241V420.802H496.767C496.025 420.802 495.427 421.409 495.427 422.151V438.274H494.812C494.07 438.274 493.463 437.676 493.463 436.934V420.241C493.463 419.499 494.07 418.892 494.812 418.892H503.339C504.081 418.892 504.679 419.499 504.679 420.241Z" fill="#82210D"/>
<path d="M487.929 428.603V448.855H469.965V428.603C469.965 423.642 473.986 419.621 478.947 419.621C483.908 419.621 487.929 423.642 487.929 428.603Z" fill="#9D3217"/>
<path d="M483.479 420.846C482.909 420.737 482.311 420.674 481.704 420.674C476.743 420.674 472.724 424.693 472.724 429.654V448.854H469.963V428.604C469.963 423.643 473.991 419.624 478.943 419.624C480.6 419.624 482.148 420.067 483.479 420.846Z" fill="#82210D"/>
<path d="M438.571 406.658H520.351L495.269 376.99H413.639L438.571 406.658Z" fill="#E05F5F"/>
<path d="M413.66 376.999H413.73L413.66 377.071V376.999Z" stroke="#AAB20F" stroke-width="0.1" stroke-linecap="round" stroke-linejoin="round"/>
<path d="M426.011 400.85C426.011 404.317 423.196 407.123 419.729 407.123C416.262 407.123 413.447 404.317 413.447 400.85C413.447 397.374 416.262 394.567 419.729 394.567C423.196 394.567 426.011 397.374 426.011 400.85Z" fill="#9D3217"/>
<path d="M425.324 397.998C424.201 396.948 422.7 396.314 421.043 396.314C417.576 396.314 414.76 399.121 414.76 402.597C414.76 403.62 415.004 404.588 415.448 405.439C414.217 404.298 413.448 402.66 413.448 400.849C413.448 397.373 416.263 394.567 419.73 394.567C422.174 394.567 424.292 395.961 425.324 397.998Z" fill="#82210D"/>
<path d="M499.601 382.111H417.947L417.187 381.205H498.841L499.601 382.111Z" fill="#C43535"/>
<path d="M503.964 387.271H422.274L421.514 386.365H503.195L503.964 387.271Z" fill="#C43535"/>
<path d="M508.327 392.44H426.619L425.859 391.534H507.567L508.327 392.44Z" fill="#C43535"/>
<path d="M512.691 397.6H430.955L430.195 396.694H511.93L512.691 397.6Z" fill="#C43535"/>
<path d="M517.054 402.76H435.292L434.532 401.854H516.285L517.054 402.76Z" fill="#C43535"/>
<path d="M364.861 450.87C364.2 442.967 357.583 436.762 349.509 436.762C341.438 436.762 334.819 442.967 334.157 450.87H364.861Z" fill="#718501"/>
<path d="M204.996 448.654C198.267 435.858 184.851 427.132 169.385 427.132C153.925 427.132 140.507 435.858 133.776 448.654H204.996Z" fill="#718501"/>
<path d="M224.048 451.65C219.294 442.789 209.952 436.76 199.189 436.76C188.43 436.76 179.088 442.789 174.332 451.65H224.048Z" fill="#5E6801"/>
<path d="M362.214 493.475C361.425 482.215 352.082 473.339 340.62 473.339C329.158 473.339 319.815 482.215 319.026 493.475H362.214Z" fill="#96A706"/>
<path d="M329.078 493.475C328.592 486.536 322.834 481.065 315.77 481.065C308.706 481.065 302.948 486.536 302.462 493.475H329.078Z" fill="#96A706"/>
<path d="M497.156 453.427C496.672 446.521 490.942 441.077 483.912 441.077C476.882 441.077 471.152 446.521 470.668 453.427H497.156Z" fill="#718501"/>
<path d="M476.833 453.428C476.535 449.172 473.004 445.816 468.671 445.816C464.338 445.816 460.807 449.172 460.509 453.428H476.833Z" fill="#718501"/>
<path d="M451.433 485.01C451.105 480.323 447.215 476.626 442.443 476.626C437.671 476.626 433.781 480.323 433.453 485.01H451.433Z" fill="#96A706"/>
<path d="M437.637 485.01C437.435 482.121 435.038 479.844 432.097 479.844C429.156 479.844 426.759 482.121 426.557 485.01H437.637Z" fill="#96A706"/>
<path d="M199.755 493.825L199.567 485.869L158.213 458.562H144.401L144.385 459.202L199.807 495.788L199.755 493.825Z" fill="#82210D"/>
<path d="M221.951 457.578H209.65L209.611 459.201L266.066 496.476L270.555 489.678L221.951 457.578Z" fill="#82210D"/>
<path d="M144.733 444.787L143.421 498.987H134.663L133.351 444.787H144.733Z" fill="#9D3217"/>
<path d="M138.371 498.992H134.665L133.349 444.792H137.066L138.371 498.992Z" fill="#82210D"/>
<path d="M199.065 465.047H144.239L144.385 459.2L144.458 456.173H198.846L199.065 465.047Z" fill="#9D3217"/>
<path d="M199.41 479.435H143.894L144.114 470.561H199.19L199.41 479.435Z" fill="#9D3217"/>
<path d="M199.754 493.823H143.55L143.758 484.949H199.546L199.566 485.867L199.754 493.823Z" fill="#9D3217"/>
<path d="M209.955 444.792L208.64 498.992H199.88L198.575 444.792H209.955Z" fill="#9D3217"/>
<path d="M204.264 444.792L203.606 498.992H199.879L198.574 444.792H204.264Z" fill="#82210D"/>
<path d="M274.45 444.792L271.12 498.992H263.07L264.5 444.792H274.45Z" fill="#9D3217"/>
<path d="M274.45 444.792L271.119 498.992H269.428L270.733 444.792H274.45Z" fill="#82210D"/>
<path d="M264.197 456.173L263.967 465.047H209.465L209.611 459.2L209.684 456.173H264.197Z" fill="#9D3217"/>
<path d="M263.821 470.562L263.581 479.436H209.109L209.328 470.562H263.821Z" fill="#9D3217"/>
<path d="M263.435 484.949L263.205 493.823H208.765L208.984 484.949H263.435Z" fill="#9D3217"/>
<path d="M543.92 493.825L543.732 485.869L502.378 458.562H488.566L488.55 459.202L543.972 495.788L543.92 493.825Z" fill="#82210D"/>
<path d="M566.116 457.578H553.815L553.776 459.201L610.231 496.476L614.72 489.678L566.116 457.578Z" fill="#82210D"/>
<path d="M488.898 444.787L487.586 498.987H478.828L477.516 444.787H488.898Z" fill="#9D3217"/>
<path d="M482.536 498.992H478.83L477.514 444.792H481.231L482.536 498.992Z" fill="#82210D"/>
<path d="M543.23 465.047H488.404L488.55 459.2L488.623 456.173H543.011L543.23 465.047Z" fill="#9D3217"/>
<path d="M543.575 479.435H488.059L488.279 470.561H543.355L543.575 479.435Z" fill="#9D3217"/>
<path d="M543.919 493.823H487.715L487.923 484.949H543.711L543.731 485.867L543.919 493.823Z" fill="#9D3217"/>
<path d="M554.12 444.792L552.805 498.992H544.045L542.74 444.792H554.12Z" fill="#9D3217"/>
<path d="M548.43 444.792L547.772 498.992H544.045L542.74 444.792H548.43Z" fill="#82210D"/>
<path d="M618.615 444.792L615.285 498.992H607.235L608.665 444.792H618.615Z" fill="#9D3217"/>
<path d="M618.615 444.792L615.284 498.992H613.593L614.898 444.792H618.615Z" fill="#82210D"/>
<path d="M608.362 456.173L608.132 465.047H553.63L553.776 459.2L553.849 456.173H608.362Z" fill="#9D3217"/>
<path d="M607.986 470.562L607.746 479.436H553.274L553.493 470.562H607.986Z" fill="#9D3217"/>
<path d="M607.6 484.949L607.37 493.823H552.93L553.149 484.949H607.6Z" fill="#9D3217"/>
<path d="M521.51 508.905C520.88 499.914 513.419 492.825 504.266 492.825C495.113 492.825 487.652 499.914 487.022 508.905H521.51Z" fill="#96A706"/>
<path d="M495.05 508.905C494.662 503.364 490.064 498.995 484.423 498.995C478.782 498.995 474.184 503.364 473.796 508.905H495.05Z" fill="#96A706"/>
<path d="M267.7 507.775C267.159 500.048 260.747 493.955 252.88 493.955C245.013 493.955 238.601 500.048 238.06 507.775H267.7Z" fill="#96A706"/>
<path d="M244.959 507.774C244.625 503.012 240.674 499.258 235.826 499.258C230.978 499.258 227.027 503.012 226.693 507.774H244.959Z" fill="#96A706"/>
</g>
</g>
<defs>
<linearGradient id="paint0_linear_332_10257" x1="375" y1="441" x2="372.582" y2="-70.6967" gradientUnits="userSpaceOnUse">
<stop stop-color="white"/>
<stop offset="1"/>
</linearGradient>
<clipPath id="clip0_332_10257">
<rect width="750" height="750" fill="white"/>
</clipPath>
</defs>
</svg>
